<svg xmlns="http://www.w3.org/2000/svg" width="113" height="113" viewBox="0 0 113 113"><title>Flickr</title><path fill="#906290" d="M72.275 68.483c-6.856 0-12.418-5.565-12.418-12.42 0-6.857 5.562-12.422 12.418-12.422 6.86 0 12.422 5.566 12.422 12.422 0 6.856-5.562 12.42-12.422 12.42zm-31.16 0c-6.86 0-12.418-5.565-12.418-12.42 0-6.857 5.558-12.422 12.418-12.422 6.857 0 12.422 5.566 12.422 12.422 0 6.856-5.565 12.42-12.422 12.42zM56.697.063c-30.93 0-56 25.073-56 56 0 30.932 25.07 56 56 56s56-25.068 56-56c0-30.927-25.07-56-56-56z"/></svg>