<svg xmlns="http://www.w3.org/2000/svg" width="113" height="113" viewBox="0 0 113 113"><title>Flickr_hv</title><g transform="translate(-.5 .062)"><path fill="#D7D7D7" d="M.697 56c0 30.933 25.07 56 56 56s56-25.067 56-56c0-30.926-25.07-56-56-56s-56 25.074-56 56z"/><linearGradient id="a" gradientUnits="userSpaceOnUse" x1="-245.716" y1="449.828" x2="-245.716" y2="448.828" gradientTransform="matrix(109 0 0 -109 26839.688 49032.734)"><stop offset="0" stop-color="#FFF"/><stop offset="1" stop-color="#DBDBDB"/></linearGradient><path fill="url(#a)" d="M2.197 56c0 30.104 24.4 54.5 54.5 54.5s54.5-24.396 54.5-54.5c0-30.098-24.4-54.5-54.5-54.5S2.197 25.902 2.197 56z"/><linearGradient id="b" gradientUnits="userSpaceOnUse" x1="-237.976" y1="439.292" x2="-237.976" y2="438.292" gradientTransform="matrix(24.84 0 0 -24.843 5952.318 10956.916)"><stop offset="0" stop-color="#0061D0"/><stop offset="1" stop-color="#0C38CD"/></linearGradient><path fill="url(#b)" stroke="#E5E5E5" d="M41.115 68.42c-6.86 0-12.418-5.564-12.418-12.42s5.558-12.42 12.418-12.42c6.857 0 12.422 5.564 12.422 12.42s-5.565 12.42-12.422 12.42z"/><linearGradient id="c" gradientUnits="userSpaceOnUse" x1="-237.976" y1="439.292" x2="-237.976" y2="438.292" gradientTransform="matrix(24.84 0 0 -24.843 5983.474 10956.916)"><stop offset="0" stop-color="#EC017F"/><stop offset="1" stop-color="#F70466"/></linearGradient><path fill="url(#c)" stroke="#E5E5E5" d="M72.275 68.42c-6.856 0-12.418-5.564-12.418-12.42s5.562-12.42 12.418-12.42c6.86 0 12.422 5.564 12.422 12.42s-5.562 12.42-12.422 12.42z"/></g></svg>