<svg xmlns="http://www.w3.org/2000/svg" width="112" height="113" viewBox="0 0 112 113"><title>Instagram</title><path fill="#906290" d="M112 56.63c0 30.9-25.1 56-56 56s-56-25.1-56-56 25.1-56 56-56 56 25.1 56 56"/><path fill="#FFF" d="M84.2 78.13c0 3.7-3 6.7-6.7 6.7h-43c-3.7 0-6.7-3-6.7-6.7v-28.7h10.5c-.9 2.2-1.4 4.6-1.4 7.2 0 10.6 8.6 19.1 19.1 19.1s19.1-8.5 19.1-19.1c0-2.5-.5-5-1.4-7.2h10.5v28.7zM46 49.43c2.2-3.1 5.9-5.1 10-5.1s7.7 2 10 5.1c1.5 2 2.3 4.5 2.3 7.2 0 6.8-5.5 12.3-12.3 12.3s-12.3-5.5-12.3-12.3c0-2.7.8-5.2 2.3-7.2zm35.4-19.7h1.5v11.9H71.1v-11.9h10.3zm-3.9-8.1h-43c-7.4 0-13.5 6.1-13.5 13.5v42.9c0 7.5 6.1 13.6 13.5 13.6h42.9c7.5 0 13.6-6.1 13.6-13.5v-43c0-7.4-6.1-13.5-13.5-13.5z"/></svg>