<svg xmlns="http://www.w3.org/2000/svg" width="113" height="113" viewBox="0 0 113 113"><title>Instagram_hv</title><path fill="#517FA4" d="M112.5 56.63c0 30.927-25.084 56-56 56-30.917 0-56-25.073-56-56 0-30.93 25.083-56 56-56 30.916 0 56 25.07 56 56"/><path fill="#FFF" d="M84.687 78.104c0 3.7-3.01 6.71-6.72 6.71H35.033c-3.71 0-6.72-3.01-6.72-6.71V49.45h10.453c-.91 2.218-1.4 4.643-1.4 7.18 0 10.554 8.586 19.142 19.133 19.142s19.133-8.588 19.133-19.14c0-2.54-.513-4.964-1.4-7.183h10.454v28.654zM46.513 49.45c2.24-3.104 5.88-5.136 9.987-5.136s7.746 2.032 9.986 5.135c1.47 2.022 2.334 4.502 2.334 7.18 0 6.79-5.53 12.32-12.32 12.32s-12.32-5.53-12.32-12.32c0-2.678.863-5.158 2.333-7.18zM81.863 29.7l1.54-.01v11.863l-11.83.042-.046-11.862 10.336-.033zm-3.896-8.07H35.033c-7.466 0-13.533 6.066-13.533 13.525v42.947c0 7.46 6.067 13.527 13.533 13.527h42.934c7.467 0 13.533-6.065 13.533-13.526V35.157c0-7.46-6.066-13.526-13.533-13.526z"/></svg>