<svg width="113" height="113" viewBox="0 0 113 113" xmlns="http://www.w3.org/2000/svg"><title>pinterest</title><path d="M63.173 70.52c-4.03 0-7.824-2.177-9.12-4.65 0 0-2.17 8.6-2.624 10.257-1.622 5.875-6.38 11.745-6.745 12.22-.256.333-.83.232-.886-.21-.106-.748-1.32-8.15.11-14.19.718-3.032 4.805-20.342 4.805-20.342s-1.194-2.38-1.194-5.907c0-5.537 3.21-9.66 7.203-9.66 3.397 0 5.03 2.542 5.03 5.597 0 3.413-2.17 8.523-3.29 13.252-.94 3.96 1.982 7.19 5.89 7.19 7.073 0 11.838-9.087 11.838-19.853 0-8.182-5.508-14.308-15.534-14.308-11.322 0-18.383 8.454-18.383 17.887 0 3.254.963 5.546 2.466 7.317.69.817.783 1.15.535 2.084-.183.683-.59 2.34-.764 2.994-.242.95-1.014 1.284-1.867.935-5.217-2.125-7.646-7.84-7.646-14.268 0-10.6 8.946-23.32 26.687-23.32 14.255 0 23.635 10.316 23.635 21.394 0 14.637-8.146 25.58-20.147 25.58zM56.697.047c-30.926 0-56 25.074-56 56 0 30.933 25.074 56 56 56s56-25.067 56-56c0-30.926-25.074-56-56-56z" fill="#906290" fill-rule="evenodd"/></svg>