<svg xmlns="http://www.w3.org/2000/svg" width="113" height="113" viewBox="0 0 113 113"><title>pinterest_hv</title><path fill="#B8242A" d="M62.674 70.52c-4.03 0-7.825-2.177-9.12-4.65 0 0-2.17 8.6-2.626 10.257-1.62 5.875-6.378 11.745-6.744 12.22-.256.334-.83.232-.886-.21-.105-.748-1.32-8.15.11-14.19.72-3.03 4.806-20.342 4.806-20.342s-1.194-2.38-1.194-5.907c0-5.537 3.21-9.66 7.203-9.66 3.396 0 5.03 2.542 5.03 5.597 0 3.413-2.17 8.523-3.29 13.252-.94 3.96 1.982 7.19 5.89 7.19 7.073 0 11.84-9.087 11.84-19.853 0-8.182-5.51-14.31-15.536-14.31-11.323 0-18.383 8.455-18.383 17.888 0 3.254.963 5.545 2.466 7.317.69.815.784 1.148.537 2.083-.183.683-.59 2.34-.764 2.994-.244.95-1.016 1.284-1.87.935-5.215-2.125-7.645-7.84-7.645-14.268 0-10.6 8.946-23.32 26.687-23.32 14.256 0 23.636 10.316 23.636 21.395 0 14.636-8.146 25.58-20.146 25.58zM56.197.047c-30.926 0-56 25.074-56 56 0 30.933 25.074 56 56 56s56-25.067 56-56c0-30.926-25.074-56-56-56z"/></svg>