<svg width="109" height="113" viewBox="0 0 109 113" xmlns="http://www.w3.org/2000/svg"><title>twitter_hv</title><path d="M75.94 45.398c.024.494.035.987.035 1.484 0 15.183-11.207 32.69-31.7 32.69-6.292 0-12.147-1.9-17.078-5.162.876.105 1.76.157 2.657.157 5.224 0 10.023-1.83 13.834-4.914-4.87-.094-8.987-3.416-10.402-7.976.678.13 1.374.203 2.094.203 1.018 0 2.002-.144 2.932-.403-5.09-1.06-8.933-5.7-8.933-11.266v-.143c1.503.86 3.22 1.376 5.046 1.44-2.99-2.06-4.955-5.58-4.955-9.567 0-2.103.55-4.08 1.508-5.775 5.49 6.95 13.705 11.526 22.963 12.002-.19-.84-.287-1.715-.287-2.618 0-6.343 4.99-11.485 11.142-11.485 3.2 0 6.1 1.397 8.132 3.623 2.535-.51 4.92-1.47 7.076-2.79-.835 2.688-2.6 4.94-4.9 6.36 2.253-.273 4.4-.896 6.397-1.806-1.49 2.303-3.38 4.326-5.56 5.946zM54.35.815C24.36.815.045 25.89.045 56.815c0 30.933 24.315 56 54.303 56 29.99 0 54.304-25.067 54.304-56 0-30.926-24.315-56-54.304-56z" fill="#39A0CE" fill-rule="evenodd"/></svg>