<svg xmlns="http://www.w3.org/2000/svg" width="110" height="113" viewBox="0 0 110 113"><title>twitter</title><path fill="#906290" d="M76.4 45.415v1.5c0 15.2-11.2 32.7-31.7 32.7-6.3 0-12.1-1.9-17.1-5.2.9.1 1.8.2 2.7.2 5.2 0 10-1.8 13.8-4.9-4.9-.1-9-3.4-10.4-8 .7.1 1.4.2 2.1.2 1 0 2-.1 2.9-.4-5.1-1.1-8.9-5.7-8.9-11.3v-.1c1.5.9 3.2 1.4 5 1.4-3-2.1-5-5.6-5-9.6 0-2.1.5-4.1 1.5-5.8 5.5 7 13.7 11.5 23 12-.2-.8-.3-1.7-.3-2.6 0-6.3 5-11.5 11.1-11.5 3.2 0 6.1 1.4 8.1 3.6 2.5-.5 4.9-1.5 7.1-2.8-.8 2.7-2.6 4.9-4.9 6.4 2.3-.3 4.4-.9 6.4-1.8-1.3 2.3-3.2 4.4-5.4 6zM54.8.815c-29.9 0-54.3 25.1-54.3 56s24.3 56 54.3 56c30 0 54.3-25.1 54.3-56 .1-30.9-24.3-56-54.3-56z"/></svg>