<svg width="121" height="119" viewBox="0 0 121 119" xmlns="http://www.w3.org/2000/svg"><title>blog_btn</title><g fill="none" fill-rule="evenodd"><path d="M61.815 4.188C55.36 10.563 50.37 18.032 50.55 30.962 45.918 19.466 53.96 8.437 60.688 4.187h1.127zM64.068 4.077c.677-.106.77.36.375.383-1.784 5.376-4.54 11.74-5.257 18.36-.23 2.167.918 5.333-1.127 6.884-1.368-1.965-.93-4.93-.752-7.267.574-7.194 3.004-14.333 6.76-18.36zM67.824 5.606c4.443 5.578 5.236 16.384 4.88 25.627-1.23-.02-1.428-1.083-3.003-.765.824-9.403-.072-17.223-1.876-24.862z" id="Shape" fill="#987086"/><path d="M65.57 5.988c-1.107 7.916-2.4 15.65-3.38 23.715-2.024.797-2.086-1.648-2.252-2.678-.836-5.228 1.803-11.433 3.004-15.3.72-2.283.76-5.333 2.627-5.737zM70.077 6.37c5.36 5.452 8.24 16.406 6.382 26.777-1.074-.425-2.21-.797-3.004-1.53 1.44-7.32-.804-17.776-3.38-25.246zM60.312 6.754c.45.064.325.702.375 1.148-3.745 5.11-4.64 13.123-4.505 22.185-1.774-.15-3.13.128-4.507.382-.313-11.158 3.6-18.022 8.637-23.716zM65.945 7.9c.678-.105.772.363.376.383.18 5.154 1.232 11.582.376 17.212-.197 1.372-.375 3.963-1.88 4.208-1.896.01-1.146-2.836-1.125-4.208.096-4.94 1.963-11.462 2.255-17.594z" id="Shape" fill="#987086"/><path d="M67.447 9.813c.96 3.05 1.804 8.013 1.878 12.242.053 2.75.136 6.343-1.5 8.032-1.703-1.02-.44-3.187-.377-4.59.24-4.878.124-10.17 0-15.684zM48.297 30.852c-5.54-6.97-14.197-10.775-26.663-10.71 1.648-1.72 4.746-1.7 7.135-1.914 8.594-.753 18.587 3.933 19.527 12.624z" id="Shape" fill="#987086"/><path d="M25.765 21.188c8.783 0 19.203 3.885 21.03 10.952-1.805.065-3.38-1.768-4.884-2.798-4.233-2.9-9.334-6.03-15.394-8.154h-.75zM20.884 21.67c10.452 1.095 17.022 6.12 23.658 11.093-.26 1.902-2.41 1.87-3.38 3.06-3.473-2.23-6.363-5.174-9.764-7.65-3.286-2.39-7.187-3.94-10.514-6.502zM19.38 23.202c.095-.478.753-.382.753 0 4.244.946 7.364 3.803 10.514 6.12 3.13 2.306 6.968 4.123 9.013 7.65-1.94 1.127-3.724-1.222-5.257-2.295-4.925-3.454-10.422-7.672-15.022-11.475zM16.377 23.585c5.715 6.035 10.67 12.856 17.65 17.595-.2 1.582-1.305 2.24-1.88 3.44-7.425-4.802-12.264-12.228-15.77-21.035zM18.254 24.348c.094-.477.752-.38.752 0 5.925 4.42 13.227 9.49 17.65 14.153.062 1.086-1.127.893-1.127 1.915-7.563-3.508-11.83-10.382-17.276-16.067zM105.75 26.26c-7.697 1.33-14.634 3.422-20.277 7.268-1.523 1.042-3.515 3.73-5.633 1.914 2.535-6.567 11.538-11.04 22.156-10.33 1.2.086 3.222-.158 3.754 1.15z" id="Shape" fill="#987086"/><path d="M16.377 27.026c4.516 6.757 8.533 14.005 15.02 18.742-.44 1.594-1.367 2.68-1.877 4.21-7.854-4.103-11.36-12.646-13.143-22.952zM108.378 27.026c-8.772 3.177-16.032 7.895-23.658 12.24-.27-.86-1.127-1.136-1.877-1.53 5.75-6.396 14.823-9.382 25.535-10.71zM105.75 29.32c.668.29.063.702 0 1.148-6.06 4.027-11.224 8.968-17.65 12.623-.25-1.02-1.126-1.402-1.877-1.912 4.642-5.865 12.653-8.276 19.527-11.857z" id="Shape" fill="#987086"/><path d="M60.688 33.91c1.19-.072 1.804-.71 1.878-1.91-1.294-1.34-3.203.593-1.878 1.91zm5.257-3.058c.836 6.545-9.71 7.225-8.636 0 3.785-.34 4.66-.245 8.635 0zM52.426 32.875H51.3c-1.94 3.188 3.067 3.188 1.126 0zm2.63-2.023c3.234 5.015-6.188 8.606-7.51 3.06 1.25-2.296 5.037-2.008 7.51-3.06z" id="Shape" fill="#E0383E"/><path d="M111.383 30.852c2.233 12.134 1.22 23.96-10.89 25.626 8.073-4.015 10.493-13.79 10.89-25.626zM14.875 31.233c1.68 7.758 3.693 18.074 11.64 20.655-8.458-.446-12.37-10.826-11.64-20.655z" id="Shape" fill="#987086"/><path d="M67.447 31.233c1.335.34.928.055 2.253.383.063 1.085-1.126.892-1.126 1.912.332.564.563 1.213 1.502 1.148 1.053.03 1.053-2.326 0-2.295 1.408-1.285 2.753.755 4.13.767.437 4.27-5.227 4.686-7.135 2.295-.176-1.712.2-2.86.377-4.21z" id="Shape" fill="#E0383E"/><path d="M106.125 31.233c-.865 2.922-4.443 6.035-7.51 8.798-1.262 1.148-3.004 2.753-4.506 3.827-1.44 1.05-3.505 2.995-4.883 1.147 4.475-5.77 11.547-8.904 16.898-13.77z" id="Shape" fill="#987086"/><path d="M107.628 31.616c.366.01.29.467.375.765-3.755 7.65-8.72 14.068-15.77 18.36-.283-1.104-.595-2.198-1.503-2.678 5.715-5.396 12.382-9.827 16.898-16.446zM109.505 33.528c.928.776.46 2.35.376 3.443-.752 9.818-4.85 19.115-15.397 19.507 7.02-5.598 12.675-12.59 15.022-22.95z" id="Shape" fill="#987086"/><path d="M43.038 39.267c1.44.32 1.46-.807 1.88-1.53-.502-.117-.71-.542-1.503-.383-.21.796-1.075 1.243-.377 1.913zm-4.13-.384c1.472-2.07 4.35-2.71 6.01-4.59 5.057 3.827-3.267 9.542-6.01 4.59z" id="Shape" fill="#E0383E"/><path d="M56.182 34.294c2.22 2.572 6.947 4.196 9.387.764 1.356 1.67 4.704 4.57 7.51 2.295.313 3.985 2.763 7.523 7.135 6.12.687 2.87 1.847 5.272 5.257 5.356-.428 4.992.635 9.157 5.633 9.562-3.568 2.146-4.162 8.394-1.127 11.475-4.266-.022-5.54 5.386-3.756 9.18-2.983-.49-3.984 1.04-6.008 1.53-.146 2.22-1.085 4.718-.376 5.736-3.87-1.338-8.793 1.01-8.26 6.504-1.556-4.6-9.39-4.878-10.89 0-1.502-3.135-6.718-4.78-9.39-1.53.418-4.91-4.192-6.217-8.635-4.974.95-3.75-2.283-8.287-6.76-6.5-.876-.926 1.315-1.968 1.503-3.062.094-4.43-2.453-6.172-5.632-7.267 3.608-1.86 3.942-9.04-.377-10.327 3.89-.99 6.07-7.184 2.63-10.328 4.047-.467 6.31-2.75 6.384-7.267 4.11 1.37 7.156-1.275 7.51-4.973 2.597 2.064 7.876 1.19 8.262-2.293z" id="Shape" fill="#DBD27C"/><path d="M76.46 38.12c.063.838.95.827 1.878.765.522-.49.657-2.284-.375-2.295-.116.903-1.775.232-1.504 1.53zm-.376-3.825c2.128 1.528 4.746 2.56 6.383 4.588-.416 1.998-2.252 2.55-3.38 3.827-4.86.402-5.443-5.58-3.003-8.416z" id="Shape" fill="#E0383E"/><path d="M16.753 34.676c.438-.065.668.085.75.38 2.213 6.812 5.322 12.688 11.267 15.685-7.417-.35-10.568-8.35-12.017-16.064z" id="Shape" fill="#987086"/><path d="M35.904 45.386c.71.085.835-.425 1.502-.382.022-1.16.22-2.52-1.127-2.294-1.253.572-1.106 1.72-.376 2.676zm0 2.296c-1.294-.33-2.46-.797-3.005-1.914.97-2.58 3.024-4.057 4.506-6.12 3.828 1.563.928 7.15-1.502 8.034zM83.97 44.62c2.284.203 2.128-2.475.375-2.677-.563.542-1.178 1.86-.374 2.678zm4.883 1.148c-1.502.893-2.86 1.934-5.633 1.53-2.326-1.52-1.535-5.907.374-7.267 2.347 1.318 3.495 3.847 5.26 5.738zM88.1 53.42c1.066-.31.98.54 1.88.38.75-1.487.364-3.517-1.88-3.06-.74.723-.177 1.808 0 2.68zm5.26 3.44c-6.594 2.67-9.265-7.118-4.507-9.562 2.524 2.148 3.316 6.057 4.506 9.563zM32.148 54.567c.877-.288 1.315-2.976-.374-2.68-1.127.024-1.16 3.126.374 2.68zm-.374-6.504c4.527 1.934 3.88 11.296-3.38 9.563.25-2.602 2.325-6.524 3.38-9.563z" id="Shape" fill="#E0383E"/><path d="M27.268 57.245c.01 1.54-1.962 1.062-3.38 1.147-6.666 1.88-13.624 3.464-18.025 7.65 1.335-3.996 9.326-7.81 15.02-9.18 1.898-.457 5.205-1.477 6.385.383zM117.453 76.75c-5.476-7.798-13.143-13.557-22.53-17.21V58.39c11.474.594 19.504 7.936 22.53 18.36z" id="Shape" fill="#987086"/><path d="M31.397 64.92c.053-.934.063-2.295-.375-2.295h-1.127c-.845 1.063-.344 2.91 1.502 2.295zm-3.003-6.147c6.186.055 7.176 10.51 0 10.33.145-3.38-1.065-7.248 0-10.33z" id="Shape" fill="#E0383E"/><path d="M27.12 59.438v3.925c-8.344 1.37-16.918 2.773-23.02 6.503.04-1.732 1.955-3.504 3.322-4.45 4.62-3.197 11.96-4.916 18.343-5.978h1.356z" id="Shape" fill="#987086"/><path d="M90.354 62.982c-.084 1.36.542 2.007 1.878 1.91.324-.445.5-1.017.375-1.91-.48-.52-1.774-.52-2.253 0zm3.38-3.443c.656 2.41-.032 6.48 0 10.327-2.598-.51-5.09-2.498-4.882-5.355.146-1.83 1.606-5.643 4.88-4.973z" id="Shape" fill="#E0383E"/><path d="M27.268 64.51c-.304 1.33.562 1.48.374 2.678-7.322 2.05-14.103 2.317-22.53 3.06 6.018-3.304 13.57-5.056 22.156-5.737zM116.264 77.517c-3.15-1.085-6.122-3.634-9.762-5.356-3.463-1.634-7.417-3.208-11.64-3.824.05-1.093-.198-2.497.373-3.06 8.94 2.125 15.085 7.076 21.03 12.24zM27.642 69.866c-.438 3.304-6.832 3.165-10.89 3.06-3.932-.096-7.937-.893-10.89-1.148 2.056-1.073 4.288-.87 7.512-1.147 5.068-.424 10.565-2.464 14.268-.764zM94.922 69.483c8.345.787 15.313 5.515 21.405 9.563-7.29-.723-14.103-4.92-21.405-7.268v-2.295z" id="Shape" fill="#987086"/><path d="M31.397 75.375h1.88c-.148-1.063.687-.906.374-1.99-.55-.19-.937-.524-1.5-.726-.732 1.114-1.23.59-.753 2.715zM28.77 70.63c7.03-1.923 10.117 7.323 4.13 8.798-2.4-1.88-3.35-5.248-4.13-8.797zM88.853 75.603c1.554.31 1.93-.583 1.877-1.91-.897.157-.813-.692-1.877-.385-.42 1.212-.033.872 0 2.295zm4.506-4.588c-.418 3.654-2.214 5.896-3.757 8.414-6.143-1.488-1.774-10.988 3.756-8.416z" id="Shape" fill="#E0383E"/><path d="M114.763 80.193c-7.333.075-15-2.826-21.03-5.355-.146-.913.69-.828.376-1.912 6.226 1.584 13.685 5.185 20.653 7.267zM6.613 73.308c3.976-.572 10.692.776 15.773.384 2.732-.214 6.582-2.114 6.758 1.53-1.71 1.688-4.767 1.614-7.51 1.528-5.246-.157-11.35-1.667-15.02-3.442z" id="Shape" fill="#987086"/><path d="M6.238 74.838c4.496.383 10.775 3.22 18.024 3.06 2.242-.04 4.455-1.358 6.01-.38-.053.445.08.68.374.764-1.45 2.274-4.966 2.39-7.887 2.295-6.09-.182-12.787-3.432-16.522-5.74z" id="Shape" fill="#987086"/><path d="M4.736 74.838c6.07 4.686 16.346 8.47 26.286 5.738-.45 1.923-2.837 3.07-4.13 3.44-8.49 2.457-18.818-4.12-22.156-9.178zM111.612 80.96c-6.655.796-14.603-1.063-18.776-3.443V76.37c5.216.647 12.048 3.78 18.776 4.59z" id="Shape" fill="#987086"/><path d="M91.48 78.665c6.384 2.178 13.508 3.59 21.78 3.825-5.715 2.496-17.44 1.986-23.28 0 .05-1.733 1.062-2.488 1.5-3.825z" id="Shape" fill="#987086"/><path d="M84.345 85.166c1.17.044 1.127-1.148 1.127-2.295-.897.16-.814-.69-1.88-.38-.446.51-.373 2.634.753 2.676zm4.13-3.06c-1.616 2.816-3.118 5.748-6.008 7.27-.646-1.84-1.826-2.457-1.877-4.21-.115-4.26 5.217-7.224 7.886-3.06zM39.283 84.783c1.377-3.43-1.825-2.337-1.855-1.158-.022.457.448.936 1.855 1.158zm1.502 3.444c-2.763-1.51-4.515-4.06-6.758-6.12 3.598-4.357 10.2 1.05 6.758 6.12z" id="Shape" fill="#E0383E"/><path d="M32.9 82.488c1.272 1.286-1.23 3.423-2.253 4.973-3.088 4.73-5.863 11.05-6.76 18.36-1.617-10.443 3.6-17.242 7.888-22.95.54.034 1.062.065 1.124-.382zM111.383 84.018c.365 1.69-2.18 1.202-3.38 1.53-5.038 1.392-14.54 2.19-19.902 0 .148-3.707 4.226-1.115 6.76-.765 4.84.68 11.745.415 16.523-.765z" id="Shape" fill="#987086"/><path d="M35.904 85.166c-4.15 7.502-9.69 13.59-10.89 24.099-.896-10.733 4.392-18.477 9.013-24.863 1.2-.33 1.167.605 1.877.764zM115.138 84.783c.648-.14.71.297.752.765-3.046 1.924-6.812 5.536-12.018 6.12-2.263.255-5.498.255-7.51-1.146 6.53.55 14.635-1.085 18.776-5.74z" id="Shape" fill="#987086"/><path d="M38.91 88.99c-5.437 6.057-9.368 13.655-12.394 22.186-1.074-6.46 1.93-11.88 4.88-16.83 1.86-3.103 3.257-5.59 5.26-8.034 1.323.32 1.76 1.53 2.253 2.68z" id="Shape" fill="#987086"/><path d="M47.545 90.802c.125-.892.594-.552.375-2.677h-1.877c-.146 2.125.146 2.667 1.502 2.677zm1.503 2.78c-2.17-1.732-5.257-2.54-7.136-4.59 2.347-4.984 11.83-.564 7.136 4.59zM75.333 91.384c.908-.148.825.75 1.88.433.75-.723.186-1.567 0-2.63h-1.504c-.428 0-.418 1.263-.377 2.197zm6.385-1.244c-2.36 1.806-4.945 3.378-8.262 4.207-2.94-7.097 6.092-9.425 8.262-4.207z" id="Shape" fill="#E0383E"/><path d="M86.223 87.46c6.645 4.963 6.497 21.347 1.126 27.54 3.284-7.946 1.564-19.527-1.878-26.008-.27-1.04.75-.765.75-1.53zM40.785 89.374c-3.107 7.68-8.97 15.853-13.143 23.714-.313-4.96 2.84-9.115 4.882-13.003 2.13-4.028 4.445-7.832 7.136-11.093.604-.107.647.36 1.125.382zM83.594 89.756c4.85 4.707 6.25 17.074 3.005 24.48-1.033-3.326-.408-12.166-2.254-18.36-.68-2.274-2.608-4.642-.752-6.12z" id="Shape" fill="#987086"/><path d="M64.818 94.346c1.503.255 2.307-.2 2.254-1.53-.25-.754-1-1.02-1.877-1.146-.543.955-.91 1.508-.377 2.676zm6.01 0c-2.37 2.59-7.272 1.54-10.14 1.912-.5-6.406 9.263-8.425 10.14-1.912zM55.055 94.346c1.02.414 1.763.244 2.253-.766-.563-.573-.563-1.71-1.877-1.53-.427.458-.417 1.36-.375 2.296zm4.13 1.53c-3.056.065-4.714-1.318-7.51-1.53.47-4.834 8.878-5.164 7.51 1.53z" id="Shape" fill="#E0383E"/><path d="M44.54 92.05c-3.88 7.385-8.72 13.813-14.27 19.507 2.358-6.906 7.532-14.258 11.64-20.654 1.42-.17 1.765.755 2.63 1.148zM81.718 92.05c3.264 5.42 4.11 16.705 3.003 24.098-2.053-7.458-2.7-16.362-6.007-22.567.938-.572 1.534-1.497 3.005-1.53zM77.212 93.963c3.233 4.994 4.89 11.604 5.632 19.125-3.025-5.45-5.038-11.94-7.136-18.36.7-.052 1.263-.244 1.504-.765zM53.928 95.495c.303.2.616.403 1.127.38-.45 3.996-3.474 7.77-6.384 10.33-4.015 3.548-9.543 6.746-15.395 8.032 8.345-4.77 16.366-9.85 20.653-18.742zM73.456 95.495c.605-.107.646.36 1.127.38 3.056 6.843 5.59 14.196 8.636 21.04-3.402-3.232-5.79-9.352-7.888-14.536-.822-2.052-2.908-4.335-1.876-6.885zM81.718 116.53c-5.038-1.688-12.08-13.088-12.393-19.89.594-.03 1.44.192 1.502-.382 4.318 6.057 5.863 14.95 10.89 20.273zM68.198 96.642c1.68 9.253 6.3 15.512 12.018 20.654-8.168-2.008-13.957-11.783-15.772-20.273 2.085.16 2.19.277 3.754-.38z" id="Shape" fill="#987086"/><path d="M56.182 97.023c.438-.063.667.085.75.383-2.858 11.495-11.504 17.096-24.408 18.36 10.68-3.4 19.297-8.904 23.658-18.743zM62.19 96.625c4.048 6.375 6.27 14.98 12.767 18.942-3.077-.19-5.987-3.002-8.26-5.638-2.723-3.157-4.914-7.173-6.01-12.01-.197-.848.72-.233.752-1.295h.75zM58.81 98.17c2.243 2.827 2.922 6.684 4.882 9.563 1.962 2.87 4.79 6.227 7.51 8.034 1.566 1.04 3.61.627 4.506 2.678-8.918-3.4-16.626-8.055-16.897-20.274zM78.338 34.294c-1.086-2.55-.198-5.982-.375-9.18-.345-6.14-1.66-11.858-4.13-15.683 5.15 2.147 10.41 17.342 4.505 24.864zM94.11 54.567c-.334-.81-1.138-1.127-1.128-2.295 5.675-5.197 11.34-10.382 15.02-17.596.25 3.252-2.753 7.257-4.88 10.71-2.243 3.655-4.736 7.608-9.013 9.18zM27.642 54.183c-5.486 2.318-12.902 2.668-17.274 6.12 2.327-3.846 9.91-7.373 17.274-6.12zM94.922 63.746v-2.294c8.345 1.998 14.03 6.375 18.402 12.24-4.768-3.177-11.1-7.577-18.402-9.946zM111.758 85.548c-3.44 4.143-17.44 5.867-23.657 1.913 7.594.34 17.034.948 23.658-1.912zM45.667 92.817c1.335.18 2.055.966 3.004 1.53-3.566 7.968-9.668 13.355-16.896 17.595 4.1-5.387 9.846-12.41 13.893-19.125z" id="Shape" fill="#987086"/><path d="M52.05 95.11c-1.898 8.118-12.85 15.843-19.902 17.596 6.844-3.325 11.714-9.382 16.523-15.3.764-.924 1.232-3.443 3.38-2.295z" id="Shape" fill="#987086"/><path d="M62.565 32c-.073 1.2-.688 1.837-1.878 1.91-1.324-1.317.585-3.25 1.878-1.91zM51.3 32.875h1.126c1.94 3.188-3.066 3.188-1.126 0zM77.962 36.588c1.032.012.897 1.807.375 2.295-.93.064-1.815.074-1.88-.765-.27-1.296 1.39-.625 1.505-1.53zM43.414 37.353c.794-.158 1 .266 1.502.383-.417.724-.438 1.85-1.88 1.53-.696-.67.17-1.116.378-1.913zM84.345 41.943c1.753.2 1.91 2.88-.374 2.678-.803-.817-.188-2.135.375-2.677zM36.28 42.71c1.345-.225 1.148 1.135 1.126 2.294-.668-.043-.794.467-1.502.382-.73-.956-.877-2.104.375-2.676zM88.1 50.74c2.243-.457 2.63 1.572 1.88 3.06-.898.16-.814-.69-1.88-.38-.177-.872-.74-1.957 0-2.68zM31.774 51.89c1.69-.298 1.25 2.39.374 2.678-1.533.445-1.5-2.657-.374-2.678zM29.895 62.625h1.127c.438 0 .428 1.36.374 2.295-1.845.616-2.346-1.233-1.5-2.295zM92.607 62.982c.125.892-.052 1.465-.375 1.91-1.336.097-1.962-.55-1.878-1.91.48-.52 1.773-.52 2.253 0zM32.148 72.62c.564.202.95.612 1.5.803.316 1.085-.52.89-.373 1.952h-1.878c-.478-2.125.02-1.64.75-2.754zM88.853 73.308c1.064-.307.98.543 1.877.384.052 1.328-.323 2.22-1.877 1.91-.033-1.422-.42-1.082 0-2.294zM39.283 84.783c-1.408-.223-1.877-.7-1.855-1.158.03-1.18 3.232-2.273 1.855 1.158zM83.594 82.488c1.065-.308.98.542 1.88.382 0 1.147.04 2.338-1.128 2.295-1.127-.04-1.2-2.166-.752-2.677zM46.044 88.125h1.877c.22 2.125-.25 1.785-.374 2.677-1.357-.01-1.65-.552-1.502-2.677zM75.708 89.188h1.503c.188 1.062.752 1.857 0 2.58-1.053.317-.97-.483-1.878-.335-.04-.934-.05-2.246.376-2.246zM65.195 91.67c.876.126 1.626.392 1.877 1.147.053 1.328-.75 1.785-2.254 1.53-.532-1.17-.166-1.722.377-2.677zM55.432 92.05c1.314-.18 1.314.957 1.877 1.53-.49 1.01-1.233 1.18-2.254.766-.043-.935-.053-1.838.376-2.295z" id="Shape" fill="#000"/><path d="M75.708 118.443c-.897-2.05-2.94-1.636-4.505-2.677-2.722-1.806-5.55-5.164-7.51-8.034-1.96-2.88-2.64-6.736-4.882-9.562.272 12.22 7.98 16.875 16.898 20.273zm-14.27-21.818c-.03 1.063-.948.497-.75 1.347 1.095 4.836 3.284 8.802 6.008 11.958 2.274 2.635 5.184 5.397 8.26 5.588C68.46 111.554 66.24 103 62.19 96.625h-.75zm-28.914 19.142c12.904-1.264 21.55-6.865 24.41-18.36-.085-.297-.314-.446-.752-.383-4.36 9.838-12.977 15.342-23.658 18.743zm31.92-18.744c1.814 8.49 7.603 18.265 15.77 20.273-5.715-5.143-10.337-11.4-12.017-20.654-1.564.658-1.668.54-3.754.38zm6.383-.765c-.063.574-.908.35-1.502.383.314 6.8 7.355 18.202 12.393 19.89-5.028-5.322-6.573-14.215-10.89-20.272zm4.506 6.122c2.098 5.183 4.486 11.303 7.887 14.535-3.046-6.843-5.58-14.196-8.636-21.04-.48-.02-.522-.487-1.127-.38-1.033 2.55 1.053 4.833 1.876 6.884zm-42.058 11.856c5.85-1.286 11.38-4.484 15.396-8.033 2.91-2.56 5.935-6.333 6.385-10.328-.51.022-.824-.18-1.127-.382-4.287 8.894-12.308 13.973-20.653 18.743zm15.396-16.83c-4.806 5.917-9.678 11.975-16.522 15.3 7.052-1.753 18.004-9.48 19.903-17.596-2.148-1.147-2.616 1.372-3.38 2.296zm27.038-2.678c2.098 6.42 4.11 12.91 7.136 18.36-.74-7.52-2.4-14.13-5.632-19.125-.24.52-.804.713-1.504.765zm-43.934 17.214c7.23-4.24 13.33-9.627 16.897-17.596-.948-.563-1.668-1.35-3.003-1.53-4.047 6.715-9.794 13.74-13.893 19.126zm46.94-18.36c3.305 6.204 3.953 15.11 6.007 22.566 1.108-7.393.262-18.678-3.002-24.097-1.47.033-2.067.958-3.005 1.53zM41.91 90.9c-4.11 6.398-9.283 13.75-11.64 20.655 5.548-5.694 10.39-12.122 14.27-19.506-.867-.392-1.21-1.317-2.63-1.147zm9.763 3.444c2.797.21 4.455 1.594 7.51 1.53 1.368-6.694-7.04-6.364-7.51-1.53zm9.013 1.912c2.87-.373 7.77.68 10.14-1.912-.877-6.513-10.64-4.494-10.14 1.912zm23.657-.382c1.847 6.194 1.22 15.034 2.253 18.36 3.243-7.406 1.847-19.773-3.005-24.48-1.855 1.478.074 3.846.752 6.12zM39.66 88.99c-2.69 3.262-5.007 7.066-7.136 11.093-2.043 3.89-5.194 8.043-4.882 13.004 4.173-7.86 10.035-16.033 13.143-23.714-.478-.02-.52-.488-1.125-.382zm45.812 0c3.442 6.483 5.162 18.063 1.877 26.01 5.37-6.194 5.518-22.578-1.127-27.54 0 .767-1.02.49-.75 1.53zm-12.016 5.356c3.317-.83 5.903-2.4 8.262-4.208-2.17-5.216-11.203-2.888-8.262 4.208zM41.912 88.99c1.88 2.052 4.966 2.86 7.136 4.59 4.694-5.152-4.79-9.572-7.136-4.59zm-5.256-2.677c-2.003 2.445-3.4 4.93-5.26 8.034-2.95 4.95-5.954 10.37-4.88 16.83 3.025-8.53 6.957-16.13 12.393-22.185-.492-1.15-.93-2.36-2.254-2.68zM88.1 87.46c6.218 3.955 20.217 2.232 23.658-1.912-6.624 2.86-16.064 2.253-23.657 1.913zm8.262 3.062c2.013 1.4 5.247 1.4 7.51 1.147 5.205-.586 8.972-4.198 12.018-6.122-.043-.467-.104-.904-.752-.765-4.14 4.654-12.246 6.29-18.776 5.74zm-62.336-6.12c-4.62 6.386-9.91 14.13-9.012 24.86 1.2-10.507 6.738-16.595 10.89-24.097-.71-.158-.677-1.092-1.878-.764zm60.834.38c-2.535-.35-6.613-2.942-6.76.766 5.363 2.19 14.865 1.392 19.903 0 1.2-.33 3.745.16 3.38-1.53-4.778 1.18-11.683 1.445-16.523.765zm-63.086-1.91c-4.288 5.706-9.504 12.506-7.887 22.95.896-7.31 3.672-13.632 6.76-18.36 1.02-1.55 3.524-3.687 2.25-4.973-.06.445-.582.414-1.123.38zm2.252-.765c2.243 2.06 3.995 4.61 6.758 6.12 3.444-5.07-3.16-10.477-6.758-6.12zm46.565 3.06c.052 1.752 1.232 2.368 1.878 4.207 2.89-1.52 4.392-4.45 6.01-7.267-2.67-4.165-8.003-1.202-7.887 3.06zm9.39-2.68c5.84 1.988 17.565 2.498 23.28 0-8.272-.233-15.396-1.645-21.78-3.824-.438 1.34-1.45 2.094-1.5 3.825zm2.856-6.117v1.147c4.173 2.38 12.12 4.24 18.776 3.442-6.728-.81-13.56-3.943-18.776-4.59zM26.89 84.017c1.295-.37 3.683-1.52 4.132-3.44-9.94 2.73-20.215-1.053-26.286-5.74C8.074 79.9 18.4 86.475 26.89 84.02zm-4.13-3.44c2.92.095 6.436-.023 7.887-2.296-.293-.085-.427-.32-.375-.765-1.554-.978-3.766.34-6.01.38-7.248.16-13.528-2.676-18.023-3.06 3.733 2.308 10.43 5.558 16.52 5.74zm-1.126-3.827c2.743.086 5.8.16 7.51-1.528-.177-3.644-4.026-1.744-6.758-1.53-5.08.393-11.798-.955-15.773-.383 3.672 1.773 9.775 3.283 15.02 3.44zm72.475-3.824c.313 1.084-.523.998-.376 1.912 6.028 2.53 13.696 5.43 21.03 5.355-6.97-2.082-14.428-5.683-20.655-7.267zm-4.507 6.502c1.542-2.518 3.338-4.758 3.756-8.415-5.53-2.57-9.9 6.93-3.757 8.415zm-56.704 0c5.987-1.476 2.9-10.72-4.13-8.797.78 3.55 1.73 6.918 4.13 8.798zm62.022-7.65c7.302 2.35 14.113 6.545 21.405 7.268-6.092-4.048-13.06-8.776-21.405-9.563v2.295zm-81.55-1.147c-3.223.277-5.455.075-7.51 1.148 2.952.255 6.958 1.052 10.89 1.148 4.058.106 10.452.244 10.89-3.06-3.703-1.7-9.2.34-14.27.765zm81.863-5.354c-.572.563-.323 1.967-.374 3.06 4.225.616 8.18 2.19 11.642 3.825 3.64 1.723 6.613 4.273 9.762 5.357-5.944-5.165-12.09-10.116-21.03-12.24zM5.11 70.25c8.43-.745 15.21-1.01 22.532-3.062.188-1.2-.678-1.35-.374-2.677-8.586.682-16.138 2.434-22.157 5.74zm108.214 3.442c-4.37-5.865-10.057-10.244-18.402-12.24v2.294c7.302 2.37 13.634 6.77 18.402 9.946zm-24.47-9.18c-.21 2.856 2.282 4.845 4.88 5.354-.03-3.846.657-7.916 0-10.328-3.276-.67-4.736 3.145-4.88 4.973zm-63.09-5.075c-6.383 1.063-13.78 2.782-18.4 5.98-1.367.945-3.223 2.788-3.265 4.52 6.102-3.73 14.676-5.203 23.02-6.574v-3.926h-1.355zm2.63 9.665c7.176.18 6.186-10.274 0-10.33-1.065 3.083.145 6.95 0 10.33zm66.528-10.71v1.147c9.388 3.653 17.055 9.412 22.53 17.21-3.025-10.422-11.055-17.764-22.53-18.358zm-74.038-1.53c-5.695 1.37-13.686 5.184-15.02 9.18 4.4-4.186 11.36-5.77 18.024-7.65 1.418-.085 3.39.392 3.38-1.148-1.18-1.86-4.487-.84-6.384-.383zM10.368 60.3c4.37-3.452 11.788-3.802 17.274-6.12-7.364-1.252-14.947 2.275-17.274 6.12zm18.026-2.676c7.26 1.733 7.907-7.63 3.38-9.563-1.055 3.04-3.13 6.96-3.38 9.563zm60.46-10.328c-4.76 2.444-2.088 12.23 4.505 9.563-1.19-3.505-1.983-7.414-4.507-9.562zm-5.26-7.267c-1.91 1.36-2.7 5.75-.374 7.268 2.774.404 4.13-.638 5.633-1.53-1.764-1.89-2.912-4.42-5.26-5.737zm-46.188-.382c-1.482 2.062-3.536 3.54-4.507 6.12.543 1.117 1.71 1.584 3.004 1.914 2.43-.883 5.33-6.47 1.502-8.034zM28.77 50.74c-5.946-2.995-9.055-8.872-11.267-15.683-.083-.296-.313-.446-.75-.38 1.45 7.713 4.6 15.713 12.016 16.064zm74.35-5.354c2.13-3.453 5.133-7.46 4.883-10.71-3.68 7.214-9.346 12.4-15.02 17.596-.01 1.17.793 1.486 1.126 2.295 4.276-1.573 6.77-5.526 9.01-9.18zM79.09 42.71c1.127-1.277 2.963-1.83 3.38-3.827-1.638-2.03-4.256-3.06-6.384-4.59-2.44 2.838-1.857 8.82 3.004 8.416zM47.92 36.587c-.356 3.697-3.4 6.344-7.51 4.974-.073 4.516-2.337 6.8-6.384 7.267 3.442 3.143 1.262 9.338-2.63 10.327 4.32 1.286 3.985 8.468.377 10.327 3.18 1.095 5.726 2.837 5.632 7.268-.19 1.094-2.38 2.136-1.502 3.06 4.476-1.785 7.71 2.753 6.76 6.502 4.443-1.243 9.053.065 8.635 4.973 2.67-3.25 7.887-1.604 9.388 1.53 1.502-4.877 9.335-4.6 10.89 0-.532-5.493 4.39-7.84 8.26-6.503-.708-1.018.232-3.516.377-5.736 2.023-.49 3.024-2.02 6.008-1.53-1.783-3.793-.51-9.2 3.757-9.18-3.035-3.08-2.44-9.33 1.127-11.475-4.998-.405-6.062-4.57-5.633-9.562-3.41-.084-4.57-2.486-5.256-5.356-4.37 1.403-6.822-2.135-7.136-6.12-2.805 2.275-6.154-.626-7.51-2.295-2.44 3.43-7.166 1.807-9.387-.764-.384 3.482-5.663 4.355-8.26 2.292zm-3.003-2.294c-1.658 1.88-4.537 2.518-6.008 4.59 2.74 4.95 11.065-.765 6.007-4.59zm49.567 22.184c10.546-.392 14.645-9.69 15.398-19.506.083-1.094.55-2.667-.376-3.443-2.348 10.358-8.002 17.35-15.022 22.948zm-3.755-8.415c.907.48 1.22 1.573 1.5 2.68 7.053-4.294 12.018-10.71 15.772-18.36-.084-.297-.01-.755-.375-.766-4.515 6.618-11.182 11.05-16.898 16.446zm-1.503-3.06c1.377 1.85 3.443-.095 4.882-1.146 1.5-1.074 3.243-2.68 4.505-3.826 3.067-2.763 6.645-5.875 7.51-8.797-5.35 4.867-12.423 8-16.898 13.77zm-22.155-9.56c1.908 2.39 7.572 1.974 7.134-2.296-1.375-.012-2.72-2.052-4.13-.766 1.054-.03 1.054 2.327 0 2.296-.938.065-1.17-.584-1.5-1.148 0-1.02 1.188-.827 1.125-1.912-1.325-.33-.917-.043-2.252-.383-.178 1.35-.554 2.497-.376 4.21zM26.516 51.888c-7.948-2.583-9.962-12.9-11.64-20.656-.73 9.828 3.18 20.208 11.64 20.655zm73.978 4.588c12.11-1.667 13.122-13.492 10.89-25.626-.398 11.835-2.818 21.61-10.89 25.626zM47.544 33.91c1.325 5.548 10.746 1.957 7.51-3.058-2.47 1.052-6.258.764-7.51 3.06zm9.764-3.058c-1.074 7.225 9.47 6.545 8.636 0-3.973-.245-4.85-.34-8.636 0zm28.915 10.326c.75.51 1.627.893 1.878 1.913 6.426-3.653 11.59-8.595 17.65-12.622.063-.446.668-.86 0-1.147-6.874 3.582-14.885 5.993-19.527 11.858zm-3.38-3.442c.75.393 1.607.67 1.878 1.53 7.627-4.346 14.887-9.063 23.66-12.24-10.714 1.328-19.788 4.314-25.536 10.71zm-53.322 12.24c.51-1.53 1.44-2.614 1.877-4.208-6.487-4.737-10.503-11.984-15.02-18.742 1.783 10.306 5.29 18.85 13.144 22.95zm72.475-24.863c-10.62-.71-19.622 3.762-22.156 10.33 2.117 1.815 4.11-.872 5.632-1.915 5.643-3.846 12.58-5.94 20.277-7.267-.532-1.306-2.555-1.062-3.755-1.147zm-66.466 15.3c0-1.02 1.188-.827 1.126-1.912-4.423-4.663-11.725-9.732-17.65-14.152 0-.38-.658-.477-.752 0 5.446 5.685 9.713 12.56 17.275 16.066zm-3.382 4.208c.574-1.2 1.68-1.858 1.878-3.44-6.978-4.74-11.933-11.56-17.65-17.596 3.507 8.808 8.346 16.234 15.772 21.037zm2.254-9.944c1.533 1.073 3.317 3.422 5.257 2.295-2.046-3.527-5.884-5.343-9.014-7.65-3.15-2.316-6.27-5.173-10.514-6.12 0-.382-.658-.477-.752 0 4.6 3.805 10.098 8.023 15.022 11.476zm-3.005-6.503c3.402 2.476 6.29 5.42 9.765 7.65.97-1.19 3.118-1.158 3.38-3.06-6.636-4.973-13.207-9.998-23.66-11.092 3.33 2.562 7.23 4.113 10.515 6.503zm-4.88-6.986c6.06 2.125 11.16 5.375 15.395 8.275 1.502 1.03 3.078 2.62 4.883 2.557-1.827-7.068-12.247-10.833-21.03-10.833h.75zm2.252-2.96c-2.39.215-5.488.194-7.136 1.915 12.465-.065 21.123 3.74 26.663 10.71-.94-8.69-10.933-13.377-19.528-12.624zm38.677 7.27c-.063 1.4-1.326 3.57.376 4.59 1.637-1.69 1.554-5.282 1.5-8.034-.072-4.227-.917-9.19-1.877-12.24.126 5.515.24 10.806 0 15.683zM73.83 9.43c2.473 3.825 3.787 9.54 4.132 15.682.177 3.2-.71 6.63.375 9.182 5.905-7.524.647-22.72-4.506-24.864zM63.693 25.496c-.02 1.372-.77 4.22 1.126 4.208 1.503-.244 1.68-2.836 1.88-4.208.854-5.63-.198-12.06-.376-17.212.396-.02.302-.488-.376-.382-.293 6.13-2.16 12.653-2.254 17.594zm-12.017 4.972c1.377-.255 2.733-.53 4.507-.382-.136-9.062.76-17.074 4.505-22.185-.05-.445.073-1.083-.375-1.147-5.038 5.695-8.95 12.56-8.637 23.715zm21.78 1.148c.794.733 1.93 1.105 3.004 1.53 1.856-10.37-1.022-21.324-6.383-26.776 2.575 7.47 4.818 17.926 3.38 25.246zm-10.513-19.89c-1.2 3.868-3.84 10.072-3.004 15.3.166 1.03.228 3.475 2.252 2.678.98-8.064 2.274-15.8 3.38-23.715-1.868.402-1.91 3.452-2.628 5.737zM69.7 30.47c1.575-.318 1.773.744 3.004.765.355-9.242-.438-20.048-4.88-25.627 1.804 7.64 2.7 15.46 1.876 24.862zm-12.392-8.03c-.177 2.335-.616 5.3.75 7.266 2.046-1.552.898-4.717 1.128-6.885.718-6.62 3.473-12.984 5.257-18.36.396-.022.302-.49-.375-.383-3.756 4.027-6.186 11.166-6.76 18.36zm3.38-18.25C53.96 8.437 45.918 19.465 50.55 30.96c-.18-12.93 4.808-20.4 11.265-26.775h-1.127zM80.966 30.85c5.446-5.387 20.915-8.86 31.543-4.59-.43 4.09.97 8.372 1.126 12.622.374 9.84-4.05 17.117-13.52 18.743 10.254 4.1 17.14 11.624 19.902 23.334-4.672 10.01-18.743 14.843-30.04 8.797 3.995 10.253 1.92 24.554-4.883 30.216-14.612.31-25.47-6.056-27.036-20.27-2.13 2.135-2.41 4.95-4.132 7.266-5.486 7.394-16.25 10.07-27.788 9.944-6.467-9.275-3.296-26.296 3.38-32.896-13.186 3.73-23.742-4.09-28.54-12.62C5.04 61.76 11.56 54.63 23.136 52.652c-9.24-3.76-10.233-20.133-8.26-31.747 10.4-5.94 27.423-4.6 33.045 4.973.584-11.083 7.198-22.112 18.4-24.864 8.147 6.376 18.557 14.79 14.646 29.836z" fill="#000"/></g></svg>