<svg width="122" height="119" viewBox="0 0 122 119" xmlns="http://www.w3.org/2000/svg"><title>contact_btn</title><g fill="none" fill-rule="evenodd"><path d="M95.735 59.26c-.19.292-.382.592-.362 1.084-1.153.312-1.113-.572-1.806-.723.3-.69 1.586-.97 2.168-.36zM99.71 59.984c.19 1.997-.733 2.88-2.892 2.53-.953-1.777.633-2.903 2.89-2.53zM102.238 67.014c.632-.332.793-1.165.723-2.168h-1.444c-.292 1.003-.623 2.087.722 2.168zm3.252-1.973c.11 4.147-5.67 4.077-6.503 1.447-.774-2.44 1.124-4.116 3.252-3.975 1.374.09 2.076 1.967 3.25 2.53zM105.85 71.545c.794 1.104 2.11.432 2.17-1.084-.854-.812-2.39-.26-2.17 1.085zm3.253-2.89c3.193 6.162-5.42 6.625-5.058 1.806.19-2.508 2.358-2.698 5.058-1.805zM102.96 71.185c.994 2.488-.983 4.204-3.25 3.25-.442-1.024-.442-2.227 0-3.25 1.023-.443 2.228-.443 3.25 0zM110.55 74.798c-.17 1.134.973.953 1.083 1.807-.312 1.375-1.285 2.087-2.89 2.168-1.236-1.035-1.246-5.06 1.807-3.975zM102.96 79.857c1.648.07 2.43-.944 1.808-2.168-1.505-.183-1.737.912-1.807 2.167zm3.253-3.975c1.997 2.69-.634 6.674-3.975 5.058-2.41-2.57-.07-7.065 3.975-5.058zM17.688 75.886h1.848v2.886c-2.007.46-1.988-.88-1.848-2.886zM22.747 76.242c-.392.934-.23 2.42-1.084 2.892-1.445.24-1.034-1.376-1.084-2.53.432-.412 1.275-.412 2.167-.362zM24.193 76.242c.32.222.643.442.723 0 1.064.854-.433 2.188-.36 3.252-1.92.09-.906-2.64-.363-3.252zM15.16 76.89h1.084c.3 0 .472.83.36 1.663-.652-.05-.762.514-1.444.433.18-1.134-.794-2.096 0-2.096zM28.167 76.966c-.25 1.193-.582 2.308-.722 3.613-.32-.28-.814-.393-1.445-.36-.07-1.88 0-3.605 2.167-3.254zM13.714 77.326v1.446h-1.446c-.17-1.134.312-1.616 1.446-1.446zM29.973 77.326c.29.19.582.383 1.084.362-.15 1.294-.964 1.927-.723 3.614-2.82.01-1.454-3.09-.36-3.976zM100.07 80.218c-.813.7-2.72.31-3.614 0-.58-3.182 4.55-4.217 3.614 0zM32.142 78.897h1.445c-.382 1.004-1.586 2.42-.723 3.976-2.157.02-1.404-2.972-.722-3.976z" id="Shape" fill="#00B58C"/><path d="M22.024 80.218c-.24 1.265-4.777 1.053-5.058 0 .623-1.637 4.014-.292 5.058 0z" id="Shape" fill="#C3C02F"/><path d="M36.478 79.857c.512 1.114.16 1.626-.362 2.53-1.635.19-2.36-.533-2.167-2.168.46-.504 1.564-.363 2.528-.363z" id="Shape" fill="#00B58C"/><path d="M23.83 80.218c1.296 1.415.312 3.29.723 5.057.854 3.624 3.955 6.112 6.143 8.312 3.913.632 6.895.523 9.033-1.445 1.284-1.176.993-3.804 3.25-3.614-.65 5.872-7.306 7.88-12.284 7.228-4.325-2.76-9.404-8.283-6.865-15.538z" id="Shape" fill="#987086"/><path d="M109.103 84.553c-1.526-.28-1.927-1.686-2.168-3.25 2.7-2.802 5.963 2.497 2.168 3.25z" id="Shape" fill="#00B58C"/><path d="M14.436 80.94c-1.846 14.334 10.18 25.204 22.764 22.764 2.1-.4 5.67-1.516 7.59-3.25 2.267-2.05 2.247-5.472 5.418-7.228C49.103 102.71 35.132 108.232 26 104.79c-.562-.212-1.084-1.106-2.168-1.808-6.324-4.076-12.226-10.9-9.396-22.042z" id="Shape" fill="#987086"/><path d="M26 80.94c.58-.1.62.342 1.082.362-1.384 4.636 3.493 10.497 9.033 9.393 2.21-.44 2.42-2.4 4.698-3.252C37.56 98.053 23.18 90.946 26 80.94z" id="Shape" fill="#F05E51"/><path d="M41.536 82.746c-.13 1.074-.622 1.786-1.445 2.168-5.188-.22-.51-6.453 1.446-2.168z" id="Shape" fill="#00B58C"/><path d="M15.52 81.662c3.012-.13 3.695.644 6.144.36.4 3.333-5.14 1.878-6.143 1.808v-2.168z" id="Shape" fill="#C3C02F"/><path d="M31.78 87.083c.4.08.562.4.723.723 1.324.12 1.856-.552 2.168-1.446-.712-.61-.832-1.816-2.53-1.444.262 1.102-.62 1.062-.36 2.167zm-3.613-5.42c4.095 1.083 7.117 3.24 10.84 4.696-2.29 6.03-12.366 2.56-10.84-4.698z" id="Shape" fill="#F26D24"/><path d="M109.103 88.89c-1.816-.353-2.076-2.35-3.614-3.253-2.83-1.655-8.01-1.987-11.202-1.446-5.952 1.005-10.237 6.887-9.033 14.095.272 1.596 2.158 3.533.723 5.058-3.04-1.496-3.382-7.106-2.89-10.478 1.756-11.915 20.696-14.805 26.015-3.976z" id="Shape" fill="#F4B033"/><path d="M46.594 84.915c.02 1.946-1.144 2.71-3.25 2.53-2.732-2.31 1.815-5.37 3.25-2.53z" id="Shape" fill="#00B58C"/><path d="M22.024 85.275c-.502 2.27-3.382 2.158-6.142 2.168.26-1.104-.372-1.314-.362-2.168 1.014-.27 4.678-.79 6.504 0z" id="Shape" fill="#C3C02F"/><path d="M97.902 84.915c1.346-.02 2.29.36 3.252.723-1.144 1.516-.3 4.997-2.168 5.782-1.575-.915-1.686-4.538-1.084-6.505z" id="Shape" fill="#F05E51"/><path d="M48.4 87.805c-.09 1.173.433 1.735 1.446 1.805.08-.28.3-.42.723-.36.11-.833-.06-1.385-.362-1.807-1.024-.3-.933.512-1.807.362zm0 2.53c-.2-.523-.56-.884-1.083-1.084.14-9.183 10.96.823 1.084 1.085z" id="Shape" fill="#00B58C"/><path d="M96.457 85.275c.02 2.14 1.958 6.566-1.084 6.505-.44-2.45-2.368-3.413-2.89-5.78.843-.725 2.298-.834 3.974-.725zM102.238 86c1.025-.303.933.51 1.807.36-.572 2.197-1.065 4.476-2.89 5.42-.242-2.52.38-4.195 1.083-5.78z" id="Shape" fill="#F05E51"/><path d="M61.41 87.805c-.102 2.278-2.19.47-3.252.722-2.68.643-4.527 2.468-3.614 5.782-6.033-2.85 2.87-10.35 6.865-6.505zM81.643 89.972c.11-.832-.06-1.383-.36-1.805h-1.085c-.27 1.354.412 1.755 1.445 1.805zm.36-3.25c-.02.62.273.933.724 1.083-.522 8.29-9.445-1.114-.723-1.084z" id="Shape" fill="#00B58C"/><path d="M94.29 92.503c-2.41-.843-3.744-2.76-5.06-4.697 2.87-2.74 4.366 2.016 5.06 4.697z" id="Shape" fill="#F05E51"/><path d="M23.11 88.167c-1.276 1.856-4.005 2.258-6.505 2.89-.11-.844-.572-1.356-.36-2.53 2.638.462 5.147-2.197 6.864-.36z" id="Shape" fill="#C3C02F"/><path d="M104.768 87.443c.983-.26.722.724 1.445.724-.02 2.348-1.767 4.627-3.252 4.336.422-1.87 1.617-2.963 1.808-5.06z" id="Shape" fill="#F05E51"/><path d="M76.585 88.167c.23 1.554-.32 2.328-1.084 2.89-2.67-.07-1.234-4.727 1.085-2.89zM65.022 88.167c-.06.792.29 1.153 1.084 1.084-.23 1.095-.562 2.09-1.807 2.17-1.106.02-.864-1.307-2.17-1.085-.32-2.007 1.005-2.37 2.892-2.168zM70.08 92.14c.482 0 .33-.63.723-.72-.04-.926-.523-1.407-1.445-1.448-.29.884-.622 2.088.722 2.17zm1.084-3.973c.763.922 1.104 2.267 1.445 3.613-2.97 5.64-8.522-4.056-1.446-3.613z" id="Shape" fill="#00B58C"/><path d="M88.146 88.89c1.576 1.675 4.236 2.267 4.336 5.42-2.268-.382-3.473-1.828-5.42-2.53.19-1.135.633-2.018 1.084-2.89z" id="Shape" fill="#F05E51"/><path d="M44.427 89.61c1.094 1.317 3.663 1.156 3.614 3.616-1.856-.312-2.92-1.416-4.335-2.17.19-.53.53-.913.722-1.445zM24.193 90.335c-1.215 2.037-3.874 2.63-5.42 4.336-.873-.45-1.164-1.484-1.444-2.53 2.416-.24 4.333-2.88 6.863-1.805z" id="Shape" fill="#C3C02F"/><path d="M57.796 92.14c.28 1.366-.44 1.728-.36 2.892 1.163.562 2.247-.24 3.25-.723v-2.17c-1.003-.26-1.454-.26-2.89 0zm2.53-2.168c2.288 1.89 2.278 6.064-.724 6.504-4.246.634-6.604-7.727.724-6.504z" id="Shape" fill="#00B58C"/><path d="M106.935 89.972c1.797 1.205-1.144 3.584-2.167 4.337-.572-1.426 1.876-2.6 2.167-4.338z" id="Shape" fill="#F05E51"/><path d="M25.637 92.503c-1.475 1.897-2.95 3.804-5.058 5.058-.402-.562-1.175-.75-1.085-1.805 1.415-1.536 3.524-4.116 6.142-3.252z" id="Shape" fill="#C3C02F"/><path d="M76.223 91.945h1.526v2.726c-1.004-.09-1.126-1.72-1.527-2.725z" id="Shape" fill="#00B58C"/><path d="M103.684 95.755c-2.982-4.608-12.947-1.938-9.033 5.058-3.292-1.043-1.585-4.918-.722-7.226 3.09-2.33 9.414-1.446 9.756 2.168z" id="Shape" fill="#F4B033"/><path d="M42.62 92.503c2.087-.04 3 1.095 4.336 1.807.09 1.054-.814 1.114-.724 2.167-1.846-.52-4.174-2.218-3.612-3.974z" id="Shape" fill="#C3C02F"/><path d="M75.14 92.503c.17 1.044 1.374 2.128.72 2.89-1.022.844-1.533-1.134-2.89-1.083.222-1.105.804-1.847 2.17-1.807zM80.92 92.503c.15.692.783.903.723 1.807-.974.773-1.917.773-2.89 0 .16-1.166.55-2.098 2.167-1.807zM65.744 93.948c-1.826.01-1.636 1.937-1.806 3.613 4.065 2.842 5.37-3.63 1.806-3.612zm3.614 1.084c1.315 5.97-5.862 5.3-7.226 2.168 0-4.577 5.108-5.17 7.226-2.168z" id="Shape" fill="#00B58C"/><path d="M86.782 92.864c1.004.964 4.688 1.094 5.42 3.252-2.178-.292-3.412-.13-5.42-.724v-2.528z" id="Shape" fill="#F05E51"/><path d="M27.445 94.31c-.543 2.47-2.238 3.783-3.614 5.418-1.394.313-1.284-.883-2.167-1.084 1.536-1.715 3.04-4.977 5.782-4.335zM44.788 97.56c.19 1.276-.583 1.587-1.084 2.17-2.07-.703-2.058-3.484-3.252-5.06 2.067-.983 2.94 2.038 4.336 2.89z" id="Shape" fill="#C3C02F"/><path d="M96.818 96.477c.05 1.155.823 1.586 2.168 1.446.412-.423.412-1.276.36-2.168-.64-.603-2.648-.523-2.528.722zm5.42 0c-2.11 1.265-3.534 3.212-6.503 3.614-3.624-5.02 4.727-7.917 6.503-3.613z" id="Shape" fill="#F26D24"/><path d="M65.384 95.032c1.516.07 2.188 1.374 1.084 2.168-.652.05-.764-.442-1.445-.36-.112-.834.06-1.386.36-1.808zM71.526 95.032c1.324-.24 1.386.782 2.53.723.17 1.134-.513 1.415-.723 2.168-1.296.21-1.746-.423-2.53-.723.29-.672.603-1.325.723-2.168z" id="Shape" fill="#00B58C"/><path d="M39.006 95.393c1.717.934 1.927 3.373 3.252 4.698-.32 1.004-1.455 1.195-2.53 1.446-.36-1.716-2.297-4.79-.722-6.143z" id="Shape" fill="#C3C02F"/><path d="M75.86 101.174c.944.543 3.154 1.194 4.337.36.603-.6.29-2.117.36-3.25-1.714-2.78-6.652-.954-4.696 2.89zm2.17-5.42c1.425-.1 3.673.723 3.974 3.252.913 7.62-10.437 3.583-7.227-1.806.352-.582 1.416-1.315 3.252-1.445z" id="Shape" fill="#00B58C"/><path d="M29.612 95.755c-.04 2.73-1.596 3.945-2.167 6.142-.903-.302-1.415-.993-2.53-1.084 1.405-1.846 1.697-4.807 4.697-5.058zM30.696 96.963h1.445c-.1 2.008-.47 4.103-1.083 5.9-1.104.262-1.065-.5-2.168-.24-.12-2.65 1.496-3.652 1.806-5.66zM36.116 96.963H37.2c.603 1.004 1.105 3.47 1.445 5.54-1.104-.262-1.064.743-2.167.48.2-1.273-.764-4.012-.362-6.02zM33.226 96.963h.723c1.725 1.004 1.304 3.45 1.444 5.72-1.125 0-2.36.883-3.252.03.38-1.907.56-3.742 1.084-5.75z" id="Shape" fill="#C3C02F"/><path d="M86.34 96.84c1.215.32 3.393-.292 5.06.36-.262 1.104.62 1.064.36 2.168-1.827-.262-2.64.49-3.975.722-.783-.782-1.575-1.555-1.445-3.25z" id="Shape" fill="#F05E51"/><path d="M79.475 100.453c-1.625.06-1.806.44-2.89-.362-.453-3.502 4.325-1.916 2.89.363zM73.333 99.006c.28 1.968-1.637 1.736-2.89 2.168.29-1.255-.542-1.384-.362-2.53.773-.67 1.927.483 3.253.362z" id="Shape" fill="#00B58C"/><path d="M92.483 101.174c-1.185.773-4.777 3.17-4.698 0 1.636.09 3.804-1.565 4.698 0z" id="Shape" fill="#F05E51"/><path d="M73.333 101.174c1.064.262 1.284 1.365 1.807 2.168-1.276-.16-2.088-.803-3.614-.723-.23-1.315 1.727-.443 1.807-1.446z" id="Shape" fill="#00B58C"/><path d="M101.516 64.846h1.445c.07 1.003-.09 1.836-.722 2.168-1.345-.08-1.014-1.165-.722-2.168zM108.02 70.46c-.06 1.517-1.376 2.19-2.17 1.085-.22-1.345 1.316-1.897 2.17-1.084zM104.768 77.688c.622 1.224-.16 2.237-1.807 2.168.07-1.254.303-2.35 1.808-2.168zM32.142 84.915c1.696-.37 1.817.833 2.53 1.444-.313.894-.844 1.566-2.168 1.445-.16-.32-.322-.643-.723-.723-.26-1.104.622-1.064.362-2.167zM50.208 87.443c.302.422.472.975.36 1.807-.42-.06-.642.08-.722.36-1.014-.07-1.535-.632-1.445-1.805.875.15.784-.663 1.808-.362zM80.197 88.167h1.084c.302.422.473.973.362 1.805-1.032-.05-1.715-.45-1.445-1.805zM69.358 89.972c.923.04 1.405.523 1.445 1.447-.392.09-.24.72-.723.72-1.344-.08-1.012-1.284-.722-2.168zM60.687 92.14v2.17c-1.004.48-2.09 1.283-3.253.722-.08-1.164.643-1.526.362-2.89 1.437-.26 1.887-.26 2.89 0zM65.022 96.84c.682-.082.793.41 1.445.36 1.104-.794.432-2.098-1.084-2.168-.3.422-.472.974-.36 1.807zm-1.084.72c.17-1.675-.02-3.602 1.806-3.612 3.564-.02 2.26 6.454-1.806 3.613zM99.348 95.755c.05.893.05 1.745-.36 2.168-1.346.14-2.12-.29-2.17-1.446-.12-1.245 1.887-1.325 2.53-.722zM76.585 100.09c1.084.804 1.265.42 2.89.362 1.435-2.278-3.343-3.864-2.89-.362zm3.974-1.806c-.072 1.133.24 2.65-.362 3.25-1.184.834-3.393.183-4.336-.36-1.957-3.844 2.98-5.67 4.697-2.89z" id="Shape" fill="#000"/><path d="M71.526 102.62c1.526-.08 2.338.562 3.614.723-.523-.803-.743-1.906-1.807-2.168-.08 1.002-2.038.13-1.807 1.445zm16.26-1.446c-.08 3.17 3.512.773 4.697 0-.894-1.565-3.062.09-4.698 0zm-17.706-2.53c-.18 1.147.653 1.276.36 2.53 1.255-.43 3.172-.2 2.892-2.167-1.325.12-2.48-1.034-3.252-.362zm17.705 1.446c1.335-.23 2.148-.983 3.975-.722.26-1.105-.622-1.065-.36-2.168-1.667-.652-3.845-.04-5.06-.36-.13 1.695.662 2.468 1.445 3.25zm-55.643 2.592c.894.854 2.127.03 3.252.03-.14-2.267.28-4.745-1.445-5.75h-.724c-.523 2.01-.703 3.813-1.084 5.72zm4.336.18c1.104.263 1.064-.5 2.167-.24-.34-2.067-.843-4.655-1.445-5.66h-1.084c-.402 2.01.562 4.625.362 5.9zm-7.59-.36c1.105-.26 1.066.744 2.17.482.61-1.796.982-4.013 1.083-6.02h-1.444c-.31 2.007-1.927 2.888-1.807 5.538zm-3.973-1.69c1.114.092 1.626.783 2.53 1.085.57-2.197 2.127-3.412 2.167-6.142-3 .25-3.292 3.212-4.697 5.058zM74.777 97.2c-3.21 5.39 8.14 9.425 7.227 1.806-.3-2.53-2.55-3.353-3.975-3.25-1.837.13-2.9.862-3.253 1.444zm-35.048 4.336c1.073-.25 2.207-.442 2.53-1.445-1.325-1.323-1.536-3.763-3.253-4.697-1.576 1.354.36 4.427.722 6.143zM70.802 97.2c.783.3 1.233.934 2.53.723.21-.753.893-1.034.723-2.168-1.144.06-1.205-.964-2.53-.723-.12.843-.432 1.496-.723 2.168zm24.932 2.89c2.97-.4 4.395-2.35 6.503-3.614-1.776-4.303-10.127-1.405-6.503 3.614zm-55.283-5.42c1.194 1.576 1.184 4.357 3.252 5.06.5-.583 1.274-.895 1.084-2.17-1.395-.852-2.27-3.873-4.336-2.89zm-18.79 3.975c.884.2.775 1.397 2.17 1.084 1.374-1.637 3.07-2.95 3.613-5.42-2.74-.643-4.246 2.62-5.782 4.335zm65.12-3.252c2.008.593 3.242.432 5.42.724-.732-2.158-4.416-2.288-5.42-3.252v2.528zM62.132 97.2c1.363 3.13 8.54 3.803 7.225-2.168-2.117-3-7.226-2.41-7.226 2.168zm16.62-2.89c.974.772 1.917.772 2.89 0 .062-.904-.57-1.115-.722-1.808-1.616-.29-2.007.642-2.168 1.807zm-5.78 0c1.355-.052 1.866 1.926 2.89 1.082.652-.762-.553-1.846-.723-2.89-1.366-.04-1.948.703-2.17 1.807zm-26.74 2.167c-.09-1.053.815-1.113.725-2.167-1.335-.712-2.25-1.847-4.336-1.807-.562 1.756 1.766 3.453 3.613 3.974zm47.696-2.89c-.863 2.308-2.57 6.183.723 7.226-3.913-6.996 6.052-9.666 9.034-5.058-.342-3.614-6.665-4.498-9.756-2.168zm-16.18 1.084v-2.725h-1.525c.4 1.004.523 2.636 1.526 2.726zm-58.253 1.085c-.09 1.054.683 1.243 1.084 1.806 2.108-1.253 3.582-3.16 5.057-5.057-2.618-.864-4.727 1.716-6.142 3.252zm85.273-1.446c1.024-.754 3.964-3.133 2.167-4.338-.29 1.738-2.74 2.912-2.167 4.337zm-45.166 2.167c3-.44 3.012-4.616.724-6.504-7.328-1.224-4.97 7.137-.724 6.504zM17.328 92.14c.28 1.045.57 2.078 1.444 2.53 1.546-1.705 4.205-2.298 5.42-4.335-2.53-1.075-4.446 1.566-6.864 1.806zm26.376-1.084c1.415.753 2.48 1.858 4.336 2.17.05-2.46-2.52-2.3-3.614-3.616-.19.533-.532.915-.722 1.446zm43.358.724c1.947.702 3.153 2.15 5.42 2.53-.1-3.153-2.76-3.744-4.336-5.42-.45.872-.893 1.755-1.084 2.89zm-14.452 0c-.342-1.346-.683-2.69-1.445-3.613-7.077-.443-1.525 9.254 1.445 3.613zm-10.48-1.445c1.306-.222 1.065 1.105 2.17 1.085 1.244-.08 1.575-1.075 1.806-2.17-.793.07-1.144-.29-1.084-1.083-1.887-.202-3.212.16-2.89 2.168zm13.37.72c.764-.56 1.316-1.334 1.085-2.888-2.32-1.837-3.754 2.82-1.084 2.89zm27.46 1.448c1.486.29 3.234-1.987 3.253-4.336-.724 0-.462-.984-1.445-.724-.19 2.097-1.386 3.19-1.807 5.06zm-86.716-3.976c-.212 1.174.25 1.686.36 2.53 2.5-.633 5.23-1.034 6.504-2.89-1.716-1.837-4.225.822-6.864.36zm72.986-.722c1.315 1.936 2.65 3.854 5.058 4.697-.692-2.68-2.187-7.436-5.058-4.697zm-6.503 0c-.45-.15-.743-.462-.723-1.084-8.722-.03.2 9.376.723 1.085zM54.544 94.31c-.913-3.315.934-5.14 3.614-5.783 1.063-.25 3.15 1.556 3.252-.722-3.996-3.844-12.9 3.654-6.866 6.504zm46.61-2.53c1.826-.943 2.32-3.222 2.89-5.42-.873.15-.78-.663-1.806-.36-.703 1.585-1.325 3.26-1.084 5.78zM92.484 86c.52 2.367 2.447 3.33 2.89 5.78 3.04.06 1.104-4.366 1.083-6.505-1.676-.11-3.13 0-3.974.724zm-45.167 3.25c.523.2.884.562 1.084 1.084 9.877-.26-.943-10.267-1.083-1.084zm51.67 2.17c1.866-.785 1.024-4.266 2.167-5.782-.963-.362-1.906-.742-3.252-.723-.602 1.967-.49 5.59 1.084 6.505zM15.52 85.275c-.01.855.623 1.065.362 2.168 2.76-.01 5.64.1 6.142-2.168-1.826-.79-5.49-.27-6.504 0zm27.823 2.168c2.108.18 3.272-.582 3.25-2.53-1.434-2.838-5.98.222-3.25 2.53zm39.745 5.42c-.492 3.373-.15 8.983 2.89 10.48 1.436-1.527-.45-3.463-.723-5.06-1.204-7.207 3.08-13.09 9.033-14.093 3.193-.54 8.372-.21 11.2 1.446 1.538.902 1.8 2.9 3.615 3.252-5.32-10.828-24.26-7.938-26.015 3.976zM39.006 86.36c-3.723-1.455-6.745-3.614-10.84-4.698-1.525 7.257 8.552 10.73 10.84 4.697zM15.52 83.83c1.005.07 6.546 1.527 6.144-1.806-2.45.282-3.132-.492-6.143-.362v2.17zm24.57 1.085c.823-.382 1.315-1.094 1.445-2.168-1.955-4.286-6.633 1.946-1.445 2.168zm.723 2.528c-2.28.853-2.488 2.81-4.698 3.252-5.54 1.105-10.417-4.757-9.033-9.393-.46-.02-.502-.463-1.083-.362-2.82 10.006 11.56 17.113 14.813 6.503zM23.83 102.98c1.085.703 1.608 1.597 2.17 1.808 9.132 3.444 23.103-2.077 24.207-11.563-3.17 1.756-3.152 5.18-5.42 7.227-1.916 1.735-5.49 2.85-7.588 3.25-12.586 2.44-24.61-8.43-22.765-22.763-2.83 11.14 3.073 17.966 9.396 22.04zm83.105-21.678c.24 1.566.643 2.97 2.168 3.25 3.795-.752.533-6.05-2.168-3.25zm-76.24 14.453c4.98.65 11.634-1.356 12.286-7.228-2.257-.19-1.966 2.438-3.25 3.614-2.14 1.97-5.12 2.078-9.034 1.446-2.188-2.2-5.29-4.688-6.143-8.312-.41-1.766.573-3.642-.722-5.057-2.538 7.256 2.54 12.778 6.866 15.538zm3.253-15.537c-.19 1.635.532 2.36 2.167 2.168.523-.903.874-1.415.362-2.53-.963 0-2.067-.14-2.53.362zm-16.982 0c.28 1.053 4.817 1.265 5.058 0-1.044-.292-4.435-1.637-5.058 0zm15.898 2.655c-.863-1.557.34-2.972.723-3.976h-1.445c-.682 1.004-1.435 3.995.722 3.976zm63.593-2.655c.894.31 2.8.7 3.614 0 .935-4.217-4.195-3.182-3.613 0zm-66.122 1.084c-.24-1.687.572-2.32.723-3.614-.502.02-.793-.17-1.084-.362-1.094.885-2.46 3.986.36 3.976zm-18.067-2.53h1.446v-1.446c-1.134-.17-1.616.312-1.446 1.446zm13.73 1.446c.633-.03 1.125.08 1.446.36.14-1.305.47-2.42.722-3.613C26 76.615 25.93 78.34 26 80.218zM15.16 78.915c.683.08.792-.34 1.444-.29.11-.834-.06-1.735-.36-1.735H15.16c-.794 0 .18.89 0 2.025zm9.393.58c-.07-1.066 1.426-2.4.362-3.253-.08.442-.402.222-.723 0-.542.613-1.556 3.343.36 3.252zm-3.974-2.89c.05 1.152-.362 2.77 1.083 2.53.854-.474.692-1.96 1.084-2.893-.892-.05-1.735-.05-2.168.362zm-1.044 2.167v-2.886h-1.848c-.14 2.007-.16 3.347 1.848 2.886zm82.702 2.168c3.34 1.616 5.972-2.368 3.975-5.058-4.045-2.007-6.384 2.49-3.975 5.058zm6.504-2.168c1.606-.08 2.58-.793 2.89-2.168-.11-.854-1.253-.673-1.082-1.807-3.053-1.084-3.043 2.94-1.808 3.975zm-9.033-7.587c-.442 1.024-.442 2.227 0 3.25 2.267.954 4.244-.762 3.25-3.25-1.022-.443-2.227-.443-3.25 0zm4.335-.724c-.36 4.82 8.25 4.357 5.058-1.805-2.7-.893-4.868-.703-5.058 1.806zm-1.807-7.948c-2.128-.14-4.026 1.536-3.252 3.975.833 2.63 6.614 2.7 6.503-1.446-1.174-.56-1.876-2.438-3.252-2.528zm-5.42 0c2.158.35 3.08-.53 2.89-2.53-2.257-.37-3.843.755-2.89 2.53zm-3.25-2.89c.69.15.65 1.033 1.805.722-.02-.492.17-.792.362-1.084-.582-.61-1.868-.33-2.168.36zM51.652 93.947c-1.113.813-1.466 2.39-1.807 3.975-4.125 5.952-12.706 9.675-20.234 8.672-11.21-1.496-19.07-12.928-15.898-26.738-2.75-.693-3.764 2.52-5.42.722 2.36-4.86 9.726-6.234 18.067-5.06 7.418 1.045 14.554 5.542 22.765 7.95 13.178 3.865 32.67 5.04 42.635-2.167 1.606-1.154 4.918-4.093 5.78-7.365 2.34-8.852-4.094-13.106-9.032-17.12h.723c6.596 0 12.477 2.235 16.622 5.918 2.5 2.22 5.73 6.875 6.503 10.548.342 1.606.704 4.05.724 5.816.05 3.362-1.918 6.41-2.17 9.772-1.756.29-1.906 2.196-2.528 3.622-1.285.642-2.31 1.55-2.53 3.257-4.928 2.91-10.148 6.175-16.26 7.952-1.436.42-3.583-.64-4.336 1.446-7.116-1.435-13.61-.813-19.15-2.89-5.32-1.998-9.435-6.042-14.453-8.31z" fill="#000"/></g></svg>