<svg width="122" height="119" viewBox="0 0 122 119" xmlns="http://www.w3.org/2000/svg"><title>gallery_btn</title><g fill="none" fill-rule="evenodd"><path d="M73.637 2.83c-5.404 1.73-10.616 4.154-11.105 9.943-.575 6.8 5.425 10.105 11.105 8.798 3.48-.796 4.544-3.867 7.278-5.354-1.457 5.673-9.406 9.52-15.32 6.12-4.627-3.144-5.65-10.922-2.296-15.683 2.263-3.218 6.36-4.355 10.337-3.824z" id="Shape" fill="#F4B033"/><path d="M79 10.478c-.298-1.752-2.522-4.58-3.83-4.972-5.64-1.68-12.128 5.344-8.81 12.24 5.862 4.74 13.768-.723 12.64-7.268zm-7.66-5.354c5.574-1.158 9.863 2.115 9.192 8.033-.84 7.384-15.202 10.508-16.85 2.678-1.087-5.176 2.616-9.66 7.658-10.71z" id="Shape" fill="#F4B033"/><path d="M74.02 6.653c1.608.49.032 2.295-1.148 2.295-.394-1.54.596-1.7 1.15-2.295zM71.783 7.036V9.33c-1.064.565-1.565.012-2.298-.763.403-.872 1.234-1.393 2.298-1.53zM75.935 8.183c.725.044.266 1.265 1.15 1.148-.533 1-1.98 1.085-3.064 1.53-.213-1.742.96-2.102 1.915-2.677zM67.893 9.33c1.438-.148 1.98 1.744 1.15 2.68-.926.158-.83-.702-1.916-.383-.18-1.2.543-1.5.766-2.296z" id="Shape" fill="#F26D24"/><path d="M57.553 10.86c.266 5.27 3.904 8.618 4.98 11.858-5.087-1.37-7.576-6.873-4.98-11.857z" id="Shape" fill="#F4B033"/><path d="M73.783 10.86c.574 2.158-2 2.85-3.064 1.913v-.765c-1.065-1.424 1.702-1.105 3.063-1.147z" id="Shape" fill="#987086"/><path d="M78.233 11.243c.01.903-.658 1.126-.382 2.295-1.638.234-1.564-1.243-3.064-1.147.193-1.285 2.363-1.953 3.447-1.147zM66.464 12.814h2.194c-.637 1.062-1.13 2.116-2.194 2.254v-2.254zM73.637 13.156c1.79-.128 2.128 1.19 3.447 1.53-.457.818-.723 1.827-1.53 2.295-1.385-.414-2.31-2.857-1.917-3.824z" id="Shape" fill="#F26D24"/><path d="M93.936 13.54h.767c-.075.33.15.36.382.38v.767c-.33-.075-.362.148-.382.38h-.767c.074-.33-.15-.36-.382-.38v-.766c.33.075.362-.148.382-.38z" id="Shape" fill="#E0383E"/><path d="M70.72 14.303v3.826c-1.065.646-2.13-.714-2.683-1.532.396-1.264.554-2.252 2.682-2.295zM71.34 14.303c1.894.276 2.106 2.232 2.682 3.826-1.33-.31-1.47.572-2.682.38-.373-1.01-.744-3.272 0-4.207z" id="Shape" fill="#F26D24"/><path d="M93.936 16.598c.235 2.402-.67 3.667-1.914 4.59-4.947-.68-.607-7.862 1.914-4.59z" id="Shape" fill="#E0383E"/><path d="M99.682 16.982c1.67-.394 1.766.785 2.68 1.147-.222.796-.732 1.305-1.53 1.528-1.438.15-1.98-1.742-1.15-2.676z" id="Shape" fill="#FFF"/><path d="M55.825 18.13c1.064 3.187 5 4.184 6.894 6.883-3.404.085-4.767-1.826-6.895-3.06V18.13z" id="Shape" fill="#F4B033"/><path d="M87.426 20.423c4.872 1.647 6.968 6.046 8.043 11.475-1.404 3.485-1.374 6.28-4.214 8.798-1.797 1.593-5.255 3.506-6.51 3.826-2.352.595-6.757.595-8.427-1.914.978-.7 2.627.49 3.83.766 7.212-1.53 14.563-5.344 13.787-13.388-.458-4.77-3.745-6.397-6.51-9.563z" id="Shape" fill="#67B6A2"/><path d="M96.234 21.57c.18 1.467-.107 2.444-.766 3.06-1.022-.51-2.245-.817-1.915-2.677 1.054-.456 1.597-.83 2.68-.382z" id="Shape" fill="#E0383E"/><path d="M86.277 22.336c2.063.977-.5 3.442-1.532 3.825.255-1.53 1.15-2.422 1.532-3.824z" id="Shape" fill="#F26D24"/><path d="M56.38 23.866c2.265 1.35 3.7 3.124 6.892 2.295v1.913c-3.192.51-6.754-.85-6.893-4.207z" id="Shape" fill="#F4B033"/><path d="M88.192 23.866c1.48-.33 1.362.935 2.298 1.147-1.18 1.243-2.287 2.56-4.596 2.68.436-1.607 1.81-2.276 2.298-3.827zM90.873 26.16c.924.48 1.234 1.573 1.53 2.68-1.733.18-3.138.69-4.978.764.458-1.84 2.48-2.115 3.448-3.443z" id="Shape" fill="#F26D24"/><path d="M99.682 27.308c-.17 1.202.82 1.222 1.916 1.148.424-1.55-1.183-1.892-1.916-1.148zm2.68-.382c.362 1.89-.468 2.59-1.15 3.442-.904.01-1.126-.66-2.296-.382-2.51-2.433 1.202-5.366 3.446-3.06z" id="Shape" fill="#E0383E"/><path d="M84.36 33.812c.32-.447.502-1.032.384-1.914-.447-.32-1.02-.5-1.915-.38-.457 1.07-.223 2.44 1.53 2.294zm-.38-6.12c4.574 2.21 2.073 9.307-3.448 8.796.575-3.506 2.458-5.705 3.447-8.796z" id="Shape" fill="#67B6A2"/><path d="M57.144 28.838c.968-.19 5.064.5 6.128.765v1.914c-2.128.583-5.362-.288-6.128-2.68z" id="Shape" fill="#F4B033"/><path d="M92.405 29.986c.436.458.436 1.35.382 2.295-1.256-.658-3.595-.233-4.595-1.147.808-.977 2.648-.924 4.213-1.147z" id="Shape" fill="#F26D24"/><path d="M63.68 32.28c.926.35 1.01 1.54 1.15 2.68-2.595.423-3.427-.915-4.596-1.914.286-1.116 3.16.35 3.447-.765z" id="Shape" fill="#F4B033"/><path d="M87.426 32.28c1.48.564 3.5.585 4.98 1.148.318 1.085-.544.988-.383 1.913-1.778-.775-3.63-1.476-4.597-3.06z" id="Shape" fill="#F26D24"/><path d="M98.916 33.812c.117 1.774-.67 2.645-2.298 2.677-.405-.394-.786-2.73 0-3.06.594-.63 1.488.126 2.298.382z" id="Shape" fill="#E0383E"/><path d="M39.935 34.064h1.15c1.01 0 1.01 2.774 1.148 3.317-.223.924-1.447.912-2.298 1.21-.585-1.562-.287-3.464 0-4.526zM42.616 34.064h2.298c.234 1.062.426 2.125.383 4.25h-1.15c-1.425-1.063-1.233-3.188-1.53-4.25zM46.063 34.064h1.915c.213 1.062 1.383 4.887-1.532 4.206.19-1.72-.192-3.144-.383-4.206z" id="Shape" fill="#F4B033"/><path d="M86.66 33.812c1.424.742 2.98 1.36 4.213 2.295.287 1.178-1.053.732-.767 1.91-1.435-1.083-4.49-1.825-3.447-4.205z" id="Shape" fill="#F26D24"/><path d="M103.895 34.193c.223 1.498-.33 2.22-.766 3.06-1.374.223-1.853-.446-2.682-.765-.202-1.997 1.542-3.612 3.447-2.295z" id="Shape" fill="#E0383E"/><path d="M37.254 34.193c1.81.818 1.31 1.55 1.532 3.825-.234.53-1.48.054-1.532.766-.713-1.073-1.053-2.518-1.532-3.825.234-.532 1.48-.055 1.532-.767zM49.442 34.064h1.6c.883 2.125 1.59 4.03-1.6 3.954v-3.954zM35.722 38.4c-.308.33-1.053.224-1.15.766-1.243-.18-1.424-3.4-1.148-3.825 1.256-.775 2.15 1.52 2.298 3.06zM52.957 35.126h1.532c.754 1.063.552 4.217-1.916 3.44.074-1.2-.256-3.44.383-3.44zM32.275 40.44h-1.532c-.372-2.126-.787-2.286-1.15-3.444 2.044-2.263 3.98 1.318 2.682 3.443zM56.028 35.723c1.086-.318.86.542 1.925.384V38.4c0 .532-1.664.383-2.685.383.202-1.072.56-1.987.76-3.06zM65.595 35.723c-.158.926.703.83.383 1.914-.446-.065-.68.085-.767.38-1.34.066-1.254-1.294-2.297-1.528.576-.564 1.68-.618 2.682-.767z" id="Shape" fill="#F4B033"/><path d="M84.745 36.107c2.34-.17 2.756 1.582 3.447 3.06-2.17 1.37-3.18-1.298-3.447-3.06z" id="Shape" fill="#F26D24"/><path d="M59.084 36.87c1.606-.317 1.968 1.754 1.15 2.68-.682.052-.81-.468-1.533-.383-.01-.904.66-1.128.384-2.296zM27.68 37.254c1.436.254 2.202 2.678 1.53 3.825-2.094.052-2-2.084-2.68-3.443.543.03 1.086.063 1.15-.383z" id="Shape" fill="#F4B033"/><path d="M83.212 37.676c1.3.498 2.693 1.7 1.916 3.825h-1.53c.126-2.124-.683-2.124-.386-3.824z" id="Shape" fill="#F26D24"/><path d="M96.618 37.254c-.117.903-.606 1.435-.383 2.678-1.552-.532-1.213.827-2.298.765.33-1.712.65-3.432 2.68-3.443z" id="Shape" fill="#E0383E"/><path d="M81.298 37.636c1.34.318.904 2.412 1.53 3.442-.732.16-.69 1.093-1.914.765.586-.552-.638-3.21.384-4.207z" id="Shape" fill="#F26D24"/><path d="M101.98 41.08c-1.65 1.253-4.777.466-4.596-2.296 1.202-2.38 5.223-.637 4.596 2.295z" id="Shape" fill="#E0383E"/><path d="M61.766 38.018c.936.214 1.968.33 1.915 1.53-.372.012-.296.468-.38.765-1.088.32-.992-.542-1.917-.38-.32-1.085.54-.99.383-1.915z" id="Shape" fill="#F4B033"/><path d="M79.383 38.018c1.777.214-.18 2.38 0 3.443-.68.055-.808-.466-1.53-.38.254-1.277 1.19-1.87 1.53-3.062z" id="Shape" fill="#F26D24"/><path d="M24.615 38.783c1.543.043 2.426 2.178 1.532 3.443-1.414-.17-2.297-2.305-1.532-3.443zM65.978 39.166c.116-.52.958-.318 1.53-.382.056.712.257 1.274.768 1.53-.808 1.157-1.425-1.094-2.298-1.148zM22.318 39.93c.84.85 2.66 2.22 1.532 3.826-1-.935-3.15-2.53-1.532-3.825zM64.447 39.93c.904.245 1.787.51 1.913 1.53-.446-.7-2.5.203-1.913-1.53z" id="Shape" fill="#F4B033"/><path d="M97 41.08c-.14.646.298.722.767.764-.405.87-1.16 1.392-2.298 1.53.02-.66-.29-.99-.767-1.147.223-.926 1.446-.85 2.298-1.148z" id="Shape" fill="#E0383E"/><path d="M22.318 44.903c-1.128.553-2.564-1.37-3.064-2.677 1.446-.86 3.15.798 3.064 2.677z" id="Shape" fill="#F4B033"/><path d="M93.06 42.608v2.678c-1.064.88-2.437.88-3.447 0-.692-2.974 2.383-4.006 3.447-2.678zM101.597 42.608c-.055 2.253-2.587 3.166-4.596 2.295.703-2.305 2.416-2.104 4.597-2.295z" id="Shape" fill="#E0383E"/><path d="M20.02 46.817c-1.447-.085-1.617-1.446-3.064-1.53-.022-2.902 4.606-.34 3.064 1.53z" id="Shape" fill="#F4B033"/><path d="M87.808 44.522c.447.572 1.107.934 1.15 1.91-.767 0-.49 1.042-1.532.767-.096-1.053-1.13-1.17-1.916-1.53-.18-1.33 2.076-.225 2.298-1.148zM75.935 45.286h1.15c.32.447.5 1.03.382 1.913-1.414.264-1.69-.607-1.532-1.914z" id="Shape" fill="#E0383E"/><path d="M18.488 48.727c-1.51-.287-4.17-.998-3.447-2.295 1.118-.53 3.937 0 3.448 2.295z" id="Shape" fill="#F4B033"/><path d="M97 46.817c.33 2.113-.756 2.814-2.297 3.058-3.032-1.052-.235-5.588 2.298-3.058zM82.063 46.817c.235 2.017-.34 3.23-1.914 3.44-2.224-1.072-.83-5.343 1.913-3.44zM84.36 46.817c1.49-.085 2.406.402 2.683 1.53.234 1.507-2.105.445-3.064.764-.055-.945-.055-1.836.38-2.293zM92.022 52.553c-2.043.254-3.416-.158-4.214-1.147-.83-5.95 6.767-3.804 4.214 1.147z" id="Shape" fill="#E0383E"/><path d="M13.51 48.346c1.54.372 3.584.244 3.446 2.295-.692.904-3.064-1.05-3.83 0-1.245-.658.99-.998.383-2.294z" id="Shape" fill="#F4B033"/><path d="M86.66 50.258c.2 1.074.563 1.987.766 3.06-.723-.425-1.81-.49-2.682-.765.107-.87-.096-1.435-.766-1.53.054-1.094 1.597-.702 2.68-.765z" id="Shape" fill="#E0383E"/><path d="M24.615 55.613c-1.478.585-2-.967-3.446-1.147-5.47-.67-10.566 4.282-6.895 9.944-8.99-5.64 5.064-17.232 10.34-8.797z" id="Shape" fill="#F26D24"/><path d="M16.19 61.35c1.33 4.793 10.894 1.094 6.128-4.208-3.66-1.433-6.947 1.243-6.128 4.21zm1.915-5.355c8.723-2.114 7.415 9.36.766 9.18-5.723-.16-6.872-7.702-.765-9.18z" id="Shape" fill="#987086"/><path d="M18.87 60.968c.49.52 1.81.52 2.3 0 .094-1.243-.46-1.837-1.533-1.912-.16.732-1.096.69-.766 1.912zm2.3 1.53c-2.757.307-4.002-1.147-3.83-2.678.445-3.94 7.893-.956 3.83 2.678z" id="Shape" fill="#F26D24"/><path d="M62.913 4.74c-.158 2.645-4.03 6.93-2.296 11.476-3.075-1.52-1.523-10.944 2.296-11.475zM103.51 16.598h.768c.02-.488.49-.53.38-1.146h-1.148v1.146zm-3.445-4.206c.36-.702 1.935.595 3.064.38-.278 1-1.82.734-1.917 1.915.905.296 2.49.126 2.682-1.148.84.435 1.276 1.273 2.297 1.528.023.66-.288.988-.765 1.148.733 2.04 2.638-.69 3.063 2.295-.956-.064-.925.862-1.532 1.148-1.074-.372.555-1.02-.38-1.53-1.47.5-1.13.83-1.533 2.68-1.075.583-2.394.922-4.213.764.372-.967 1.86-1.562 2.298-.383.34-.17.682-.34.766-.766-.48-1.847-.234-3.295-2.297-4.972-2.226.595-1.5-.234-2.683-1.148-.405 2.274-1.394 5.47 1.15 6.884-3.747-.296-2.778-5.704-1.533-8.032 1.18-.288.734 1.05 1.916.765.902-.106-.035-1.423-.385-1.528z" id="Shape" fill="#F4B033"/><path d="M96.618 13.92c.713.14-.043 1.945-.383 2.296-.468 1.232.032-1.923.383-2.295zM103.895 26.926c-.555-1.722-3.405-2.507-6.128-1.53-4.405 7.012 8.19 7.926 6.128 1.53zm-8.043-.765c4.308-5.8 12.095-.328 7.277 4.59-2.597 2.646-8.035 1.584-7.278-4.59z" id="Shape" fill="#E0383E"/><path d="M11.594 52.553c1.532-.49 2-1.445 3.83-.765-1.16 1.263-2.277 2.57-3.83 3.443-1.17 3.37-.138-.977 0-2.677z" id="Shape" fill="#F4B033"/><path d="M71.34 18.51c1.213.192 1.353-.69 2.682-.38-.575-1.595-.787-3.55-2.682-3.827-.744.935-.373 3.198 0 4.208zM68.037 16.6c.554.818 1.618 2.178 2.682 1.53v-3.825c-2.13.043-2.287 1.03-2.683 2.295zm7.516.384c.81-.468 1.075-1.478 1.53-2.295-1.318-.34-1.658-1.66-3.446-1.53-.392.966.532 3.41 1.916 3.825zm-9.09-1.914c1.064-.138 1.558-1.192 2.195-2.254h-2.194v2.254zm8.323-2.676c1.5-.096 1.426 1.38 3.065 1.147-.275-1.17.394-1.394.383-2.296-1.084-.807-3.254-.14-3.447 1.148zm-4.067-.384v.765c1.063.936 3.637.245 3.063-1.912-1.36.043-4.128-.276-3.064 1.148zm-3.593-.382c1.086-.32.99.542 1.915.382.83-.935.29-2.826-1.15-2.678-.222.798-.945 1.096-.765 2.296zm6.894-.765c1.086-.446 2.532-.53 3.064-1.53-.883.118-.424-1.103-1.15-1.147-.955.575-2.127.935-1.913 2.678zm-4.535-2.293c.733.774 1.234 1.328 2.298.764V7.037c-1.064.138-1.895.66-2.298 1.53zm3.387.38c1.18 0 2.756-1.805 1.15-2.294-.554.596-1.544.755-1.15 2.295zm-6.512 8.8c-3.318-6.896 3.17-13.92 8.81-12.24 1.307.392 3.53 3.218 3.83 4.97 1.128 6.546-6.778 12.008-12.64 7.27zM103.51 15.45h1.15c.107.616-.362.66-.382 1.147h-.768V15.45zM98.916 29.986c1.17-.277 1.393.393 2.297.382.68-.85 1.51-1.552 1.15-3.442-2.245-2.306-5.958.627-3.447 3.06zm-1.15-4.59c2.724-.977 5.574-.192 6.13 1.53 2.062 6.396-10.534 5.482-6.13-1.53z" id="Shape" fill="#000"/><path d="M101.597 28.456c-1.097.074-2.087.054-1.916-1.148.735-.744 2.342-.403 1.917 1.148zM82.83 31.517c.894-.117 1.468.063 1.915.38.117.883-.064 1.468-.383 1.915-1.755.147-1.99-1.223-1.532-2.295zM17.34 59.82c-.172 1.53 1.073 2.986 3.83 2.68 4.063-3.636-3.385-6.62-3.83-2.68zm4.978-2.678c4.766 5.302-4.798 9-6.128 4.21-.82-2.967 2.468-5.643 6.128-4.21z" id="Shape" fill="#000"/><path d="M19.637 59.056c1.074.074 1.627.67 1.532 1.912-.49.52-1.81.52-2.3 0-.33-1.222.607-1.18.767-1.912z" id="Shape" fill="#000"/><path d="M18.87 65.176c6.65.18 7.958-11.295-.765-9.18-6.107 1.477-4.958 9.02.766 9.18zm-4.595-.766c-3.67-5.662 1.425-10.614 6.894-9.944 1.445.18 1.967 1.732 3.445 1.147-5.276-8.435-19.33 3.156-10.34 8.797zm-2.68-9.18c1.552-.87 2.67-2.18 3.83-3.442-1.83-.68-2.3.276-3.83.765-.14 1.7-1.17 6.046 0 2.678zm72.384-4.208c.67.096.87.66.765 1.53.872.276 1.96.34 2.682.765-.202-1.073-.564-1.986-.767-3.06-1.085.064-2.628-.328-2.68.765zm-70.854-.38c.766-1.053 3.138.902 3.83 0 .138-2.052-1.905-1.926-3.447-2.296.605 1.296-1.63 1.636-.384 2.295zm74.682.764c.798.99 2.17 1.4 4.214 1.147 2.553-4.95-5.043-7.097-4.214-1.147zm-3.83-2.295c.96-.318 3.3.744 3.065-.764-.277-1.127-1.192-1.614-2.682-1.53-.435.458-.435 1.35-.38 2.295zm-3.83 1.148c1.575-.212 2.15-1.424 1.915-3.44-2.744-1.904-4.137 2.367-1.914 3.44zm14.555-.383c1.54-.244 2.628-.946 2.298-3.058-2.532-2.53-5.33 2.006-2.297 3.058zM15.04 46.433c-.723 1.297 1.937 2.008 3.448 2.295.49-2.295-2.33-2.826-3.447-2.295zm62.428.765c.117-.882-.064-1.466-.383-1.913h-1.15c-.158 1.307.118 2.18 1.533 1.913zm8.042-1.53c.787.362 1.82.478 1.916 1.53 1.04.276.766-.766 1.53-.766-.04-.977-.7-1.34-1.148-1.91-.222.923-2.48-.18-2.298 1.147zm-68.554-.382c1.447.085 1.617 1.446 3.064 1.53 1.542-1.87-3.086-4.43-3.064-1.53zM97 44.903c2.01.87 4.543-.042 4.597-2.295-2.18.19-3.894-.01-4.596 2.295zm-7.387.383c1.01.88 2.383.88 3.447 0v-2.678c-1.064-1.328-4.14-.296-3.447 2.678zm-70.36-3.06c.5 1.306 1.937 3.23 3.065 2.678.085-1.88-1.618-3.54-3.064-2.677zm75.45 0c.477.16.787.488.766 1.148 1.137-.14 1.892-.66 2.297-1.53-.468-.042-.906-.117-.766-.765-.85.296-2.074.22-2.297 1.147zm-28.343-.765c-.126-1.018-1.01-1.284-1.913-1.53-.586 1.732 1.467.83 1.913 1.53zm-42.51 2.296c1.127-1.605-.692-2.975-1.532-3.825-1.618 1.297.53 2.89 1.532 3.826zm44.426-3.443c-.51-.255-.712-.818-.767-1.53-.574.066-1.416-.138-1.532.383.873.054 1.49 2.305 2.298 1.147zm-42.13 1.914c.895-1.265.012-3.4-1.53-3.443-.766 1.137.117 3.272 1.53 3.443zm51.705-1.148c.725-.086.852.435 1.532.38-.18-1.062 1.777-3.228 0-3.442-.34 1.19-1.275 1.785-1.53 3.06zm-16.467-1.15c.925-.16.83.702 1.916.382.084-.296.01-.753.38-.765.054-1.2-.978-1.316-1.914-1.53.158.927-.703.83-.383 1.914zm36-1.147c-.18 2.763 2.948 3.55 4.596 2.295.627-2.93-3.394-4.675-4.597-2.295zm-16.468 3.06c1.222.33 1.18-.604 1.915-.765-.628-1.032-.19-3.124-1.53-3.442-1.024.998.2 3.655-.385 4.207zm13.02-1.147c1.087.063.746-1.297 2.3-.765-.224-1.242.265-1.774.382-2.677-2.03.012-2.35 1.732-2.68 3.443zm-10.34.805h1.532c.777-2.124-.617-3.326-1.916-3.824-.295 1.7.514 1.7.386 3.825zM26.53 37.637c.68 1.36.586 3.495 2.68 3.442.672-1.147-.094-3.57-1.53-3.825-.064.447-.607.414-1.15.383zm32.172 1.53c.723-.085.85.435 1.532.382.82-.924.457-2.995-1.15-2.678.276 1.17-.393 1.393-.382 2.296zm29.49 0c-.69-1.477-1.106-3.23-3.447-3.06.266 1.763 1.277 4.43 3.447 3.06zm-25.28-2.678c1.044.235.96 1.594 2.3 1.53.085-.297.32-.447.766-.382.32-1.084-.542-.988-.383-1.914-1 .15-2.106.204-2.682.766zm-7.65 2.295c1.023 0 2.69.15 2.69-.382v-2.293c-1.063.158-.833-.702-1.92-.384-.2 1.073-.567 1.988-.77 3.06zm-25.668-1.787c.362 1.158.777 1.318 1.15 3.443h1.53c1.3-2.126-.637-5.707-2.68-3.444zm22.98 1.57c2.468.777 2.67-2.377 1.915-3.44h-1.533c-.64 0-.31 2.24-.383 3.44zm-19.15-3.225c-.276.426-.095 3.645 1.15 3.826.095-.542.84-.436 1.148-.765-.15-1.54-1.042-3.835-2.298-3.06zm16.018 2.678c3.19.075 2.483-1.83 1.6-3.954h-1.6v3.954zm-13.72-3.06c.48 1.307.82 2.753 1.532 3.826.053-.712 1.298-.235 1.532-.766-.223-2.274.277-3.007-1.532-3.825-.053.712-1.298.235-1.532.766zm64.726 1.53c.828.32 1.307.988 2.68.766.437-.84.99-1.563.767-3.06-1.905-1.318-3.65.297-3.447 2.294zm-10.34 1.53c-.288-1.178 1.052-.732.766-1.91-1.234-.937-2.788-1.554-4.214-2.296-1.043 2.38 2.01 3.122 3.447 4.206zm-43.662.252c2.915.68 1.745-3.144 1.532-4.206h-1.915c.19 1.062.574 2.486.383 4.206zm-2.298.044h1.15c.042-2.125-.15-3.188-.384-4.25h-2.298c.298 1.062.106 3.187 1.532 4.25zm-4.213.213c.85-.297 2.075-.16 2.298-1.084-.138-.543-.138-3.38-1.15-3.38h-1.148c-.287 1.063-.585 2.902 0 4.464zm56.683-5.1c-.786.33-.405 2.668 0 3.06 1.627-.03 2.416-.902 2.298-2.676-.81-.254-1.704-1.01-2.298-.382zm-4.596 1.914c-.16-.924.7-.827.382-1.912-1.48-.563-3.5-.584-4.98-1.147.97 1.584 2.82 2.285 4.598 3.06zm-31.788-2.294c1.17.998 2 2.337 4.596 1.913-.14-1.138-.224-2.328-1.15-2.68-.287 1.116-3.16-.35-3.446.766zm27.958-1.913c1 .914 3.34.49 4.595 1.148.054-.945.054-1.836-.382-2.294-1.565.223-3.405.17-4.213 1.147zm-24.92.384v-1.914c-1.064-.265-5.16-.955-6.128-.765.766 2.39 4 3.262 6.128 2.68zm17.26 4.97c5.52.51 8.022-6.586 3.447-8.795-.99 3.09-2.873 5.29-3.448 8.796zm6.894-6.884c1.84-.073 3.245-.583 4.98-.765-.298-1.105-.608-2.198-1.532-2.678-.97 1.33-2.99 1.605-3.448 3.443zm-1.532-1.91c2.31-.12 3.415-1.437 4.596-2.68-.936-.212-.82-1.477-2.298-1.147-.49 1.55-1.862 2.22-2.298 3.826zm-22.622.38V26.16c-3.192.83-4.627-.944-6.893-2.294.138 3.357 3.7 4.718 6.892 4.207zm39.857 2.678c4.817-4.918-2.97-10.39-7.278-4.59-.757 6.174 4.68 7.236 7.277 4.59zm-18.385-4.59c1.032-.38 3.596-2.847 1.532-3.824-.383 1.402-1.277 2.295-1.532 3.825zm8.81-4.206c-.332 1.86.892 2.167 1.914 2.678.658-.617.946-1.594.765-3.06-1.085-.448-1.628-.075-2.68.382zm.38 8.032c.777 8.043-6.574 11.857-13.786 13.388-1.204-.276-2.853-1.467-3.832-.766 1.67 2.508 6.075 2.508 8.426 1.914 1.256-.32 4.714-2.233 6.51-3.826 2.84-2.518 2.81-5.313 4.214-8.798-1.075-5.428-3.17-9.828-8.043-11.475 2.767 3.166 6.054 4.793 6.51 9.563zm-38.11-8.032c2.128 1.233 3.49 3.144 6.894 3.06-1.894-2.7-5.83-3.697-6.895-6.885v3.824zm45.006-2.296c.8-.223 1.31-.732 1.532-1.53-.914-.36-1.01-1.54-2.68-1.146-.83.934-.288 2.825 1.15 2.676zm-8.808 1.53c1.245-.923 2.15-2.19 1.914-4.59-2.52-3.272-6.86 3.91-1.914 4.59zm4.212-4.972c.34-.35 1.095-2.156.383-2.295-.35.373-.85 3.528-.383 2.296zm-2.68-2.295v.767c.234.02.457.052.382.38h.767c.02-.233.053-.456.382-.38v-.766c-.234-.02-.458-.052-.382-.38h-.767c-.02.232-.052.455-.382.38zm6.894 0c-1.18.288-.734-1.05-1.916-.764-1.245 2.327-2.213 7.735 1.532 8.032-2.543-1.413-1.554-4.61-1.15-6.884 1.18.914.458 1.743 2.683 1.148 2.062 1.677 1.818 3.123 2.296 4.972-.084.424-.424.595-.765.765-.437-1.18-1.927-.585-2.298.382 1.82.158 3.138-.18 4.212-.765.405-1.85.064-2.18 1.532-2.678.937.508-.69 1.157.382 1.528.607-.287.576-1.212 1.532-1.147-.424-2.986-2.33-.254-3.064-2.294.478-.16.788-.49.766-1.148-1.02-.255-1.457-1.093-2.298-1.53-.19 1.275-1.776 1.445-2.682 1.15.097-1.18 1.64-.915 1.916-1.915-1.128.213-2.702-1.084-3.063-.38.352.104 1.29 1.42.385 1.528zM62.532 22.72c-1.075-3.24-4.713-6.587-4.98-11.857-2.595 4.985-.106 10.488 4.98 11.858zm1.15-6.884c1.648 7.83 16.01 4.707 16.85-2.678.67-5.917-3.617-9.19-9.192-8.033-5.042 1.053-8.745 5.536-7.66 10.71zm-3.065.382c-1.734-4.547 2.138-8.83 2.296-11.475-3.82.532-5.37 9.956-2.296 11.476zm2.68-9.563c-3.35 4.76-2.33 12.54 2.297 15.683 5.915 3.4 13.863-.447 15.32-6.12-2.734 1.487-3.798 4.558-7.278 5.355-5.68 1.306-11.68-1.997-11.106-8.797.49-5.79 5.702-8.212 11.106-9.944-3.977-.532-8.073.605-10.338 3.823zm.384 16.065c.362 9.085 3.308 17.117 9.957 20.655 9.756-6.036 10.086-32.31 25.28-32.513 4.935-.064 7.35 2.836 10.34 5.736-.086 2.51 1.5 3.347 1.148 6.12-1.36.628-3.137-1.21-4.213.766 1.107 13.6-4.744 30.472-17.617 30.6-5.564.052-11.16-3.252-13.79-7.65-7.105-3.114-14.818-6.874-24.892-7.65-13.532-1.04-27.607 3.358-32.17 12.622 9.446-.882 11.478 12.654 3.83 15.298-6.257.767-9.076-1.9-11.49-4.972-1.703-8.203 2.978-14.418 7.66-18.74 2.892-2.68 4.765-3.784 8.807-5.738 1.383-.67 2.81-1.934 3.83-2.295 9.83-3.475 22.118-2.242 31.023 1.53-3.937-5.94-8.245-12.028-6.51-20.273.658-3.156 2.02-7.215 3.83-9.182 2.754-2.984 8.712-5.927 12.637-5.736 5.342.266 10.416 5.97 10.723 12.24.47 9.416-10.542 14.558-18.382 9.182z" fill="#000"/></g></svg>