<svg width="121" height="119" viewBox="0 0 121 119" xmlns="http://www.w3.org/2000/svg"><title>home_btn</title><g fill="none" fill-rule="evenodd"><path d="M57.883 13.535h1.915v1.913c-1.36.083-2-.553-1.915-1.913zM62.48 19.654c1.382.14 1.85.585 3.063 0 .83-.913 1.01-2.9.382-4.207-3.488-.956-4.478 1.838-3.446 4.207zm1.914-5.738c4.798-.276 3.734 7.194 0 7.65-4.734.574-6.17-7.287 0-7.65z" id="Shape" fill="#DBD27C"/><path d="M52.52 14.3c-2.605 1.37-3.21 6.67-.765 8.032-3.297 1.265-4-9.286.766-8.032z" id="Shape" fill="#C3C02F"/><path d="M57.746 20.42v-3.06c-6.383-5.58-7.447 8.128 0 3.06zm-1.012 2.295c-2.308.392-2.702-1.127-4.596-1.148-2.478-5.6 3.128-9.34 5.745-5.737 1.192 1.636 1.31 5.61-1.15 6.885zM74.735 16.21c-.33 1.203-1.48 1.584-2.682 1.915-.87-.425-2.31-2.264-1.148-3.443 1.267-.787 3.52.15 3.83 1.53z" id="Shape" fill="#DBD27C"/><path d="M47.16 15.83c.617-.106.66.36 1.15.38-1.5 2.446 1.21 5.506.382 7.27-2.532-1.658-2.49-4.95-1.532-7.65z" id="Shape" fill="#C3C02F"/><path d="M63.628 17.125h1.532c.053 0 .053 1.583-.383 2.03-.69.052-.807-.335-1.53-.25-.12-.882.062-1.78.38-1.78zM54.053 16.977c1.394-.244 2.043.255 2.68.765.193 1.594-.456 2.348-1.53 2.68-1.713.232-1.916-2.403-1.15-3.445z" id="Shape" fill="#DBD27C"/><path d="M43.713 17.125h1.532c-.766 3.188 2.255 5.537.383 7.267-1.947-1.932-1.958-3.017-1.915-7.267z" id="Shape" fill="#C3C02F"/><path d="M78.948 18.89c-1.01 1.158-3.617.723-4.596 1.912-1.597-2.35 3.096-3.644 4.596-1.912z" id="Shape" fill="#F26D24"/><path d="M41.032 18.188h1.15c.392 2.125 1.563 5.47 1.53 6.885-2.648-.86-2.36-4.76-2.68-6.886z" id="Shape" fill="#C3C02F"/><path d="M71.288 19.272c.543 1.392 1.128 2.625 0 3.825-1.873.213-2.725-.596-3.447-1.53-.02-1.933 1.32-2.507 3.448-2.295z" id="Shape" fill="#DBD27C"/><path d="M39.5 19.654c.893 2.04 1.362 4.505 2.298 6.502-1.766.564-5.234-4.717-2.298-6.502z" id="Shape" fill="#C3C02F"/><path d="M81.628 21.567c-3.404.297-5.978 1.424-8.426 2.678.66-3.72 6.937-4.91 8.426-2.678z" id="Shape" fill="#F26D24"/><path d="M37.202 21.95c-.053 2.857 2.404 3.21 2.68 5.737-2.404-.095-5.223-4.335-2.68-5.737z" id="Shape" fill="#C3C02F"/><path d="M82.013 23.097c-2.672 1.286-6.13 1.785-8.81 3.06 1.692-2.05 5.437-3.952 8.81-3.06z" id="Shape" fill="#F26D24"/><path d="M34.138 23.48c-.202 1.455-1.49 1.827-2.68 2.294.552-1.104 1.425-1.89 2.68-2.295z" id="Shape" fill="#DBD27C"/><path d="M65.543 23.862c2.67-.87 5.084 1.795 6.51 3.442-2.435.65-3.785-3.09-6.51-3.442z" id="Shape" fill="#E0383E"/><path d="M53.287 23.862c1.373-.224 1.16 1.136 1.15 2.294-1.713.522-1.862-1.54-1.15-2.294zM59.415 25.392c.032 1.562-1.415 1.647-3.064 1.53-1.828-2.815 2.427-4.186 3.065-1.53z" id="Shape" fill="#DBD27C"/><path d="M63.245 23.862c2.745 1.21 5.447 2.464 6.51 5.354-.446-.063-.68.085-.765.383-2.18-1.647-4.384-3.273-5.745-5.738zM61.713 24.626c1.67 2.2 6.606 4.21 4.98 7.27-3.373-.714-4.054-4.113-4.98-7.27z" id="Shape" fill="#E0383E"/><path d="M84.31 25.392c-1.98 1.424-4.47 1.213-6.51 1.913-8.724 2.975-13.49 9.817-15.704 19.89-1.925-6.332 2.554-12.08 6.51-15.683 3.788-3.443 9.608-8.107 15.704-6.12z" id="Shape" fill="#00B58C"/><path d="M35.67 25.01c-.34 1.826-1.49 2.847-3.447 3.06.362-1.806 2.15-2.19 3.447-3.06z" id="Shape" fill="#DBD27C"/><path d="M34.138 32.277c-2.926.934-5.18-3.58-5.362-5.356 2.65-.54 3.404 3.955 5.362 5.357z" id="Shape" fill="#C3C02F"/><path d="M36.436 26.92c1.777 1.053-.85 3.19-2.68 3.062.16-1.753 2-1.828 2.68-3.06z" id="Shape" fill="#DBD27C"/><path d="M60.564 26.92c2.16 1.543 2.926 4.475 4.212 6.886-2.935-1.37-2.83-3.717-4.212-6.885z" id="Shape" fill="#E0383E"/><path d="M52.904 27.305c.947-.053 1.84-.053 2.298.382-.063.447.086.68.383.765-.138 1.243-1.957 2.062-3.064 1.148-.275-1.17.66-1.126.384-2.295z" id="Shape" fill="#DBD27C"/><path d="M83.544 27.305c2.158-.298 2.298 5.992.382 6.12.15-3.166-.447-3.24-.382-6.12zM80.48 27.75h1.532c.266 2.125 1.064 3.528.765 6.12-.904-1.902-2.265-2.932-2.297-6.12z" id="Shape" fill="#F4B033"/><path d="M26.86 28.452c1.842 1.732 3.714 3.43 4.98 5.737-2.872-.447-6.117-3.73-4.98-5.738z" id="Shape" fill="#C3C02F"/><path d="M60.947 32.277c-1.98 1.764-4.904.116-4.98-1.53-.148-3.21 5.64-3.187 4.98 1.53z" id="Shape" fill="#DBD27C"/><path d="M77.8 28.813h1.53c.17 2.125 2.182 4.057 1.15 6.12-1.427-1.328-2.766-5.058-2.68-6.12zM76.65 29.6c.532 1.848 2.48 4.037 1.916 5.736-1.384-1.615-4.31-3.517-4.214-5.354.457-.435 1.35-.435 2.298-.382z" id="Shape" fill="#F4B033"/><path d="M29.925 36.102c-2.383.658-5.34-3.283-5.362-4.972 2.17-.18 3.936 3.166 5.362 4.972z" id="Shape" fill="#C3C02F"/><path d="M76.65 35.336c-.553 1.233-1.394 2.18-3.063 2.295-.224-2.07-1.373-3.217-3.447-3.44 1.18-5.12 5.255-1.7 6.51 1.146z" id="Shape" fill="#F4B033"/><path d="M52.52 31.512c1.576.085 2.863.457 2.682 2.295-.712.308-1.404.638-2.298.766-.86-.69-.904-1.934-.383-3.06zM23.03 32.66c.47 1.625-1.627 3.974-3.063 4.972.532-2.146 2.054-3.304 3.064-4.972zM24.18 34.19c1.298.903-.947 4.59-2.68 4.972.116-2.433 1.85-3.25 2.68-4.973z" id="Shape" fill="#DBD27C"/><path d="M57.117 34.572c.564 1.22-2.074 4.547-1.15 6.12-1.477.732-2.137-3.92-1.53-5.356 1-.148 2.106-.19 2.68-.764z" id="Shape" fill="#F26D24"/><path d="M61.33 34.955c-1.596 2.614-2.798 5.62-3.064 9.562-2.85-2.03-1.266-10.594 3.064-9.562z" id="Shape" fill="#F26D24"/><path d="M84.31 35.336c-3.712 1.977-7.852 3.177-10.34 6.504-1.416 1.88-1.235 4.515-3.448 6.12.606-8.193 6.096-11.507 13.022-13.388.648-.138.723.298.766.764z" id="Shape" fill="#00B58C"/><path d="M70.14 35.336c-.374 2.285 1.563 2.264 2.68 3.06.33 1.223-.606 1.18-.767 1.914-2.244-.436-3.36-1.998-4.595-3.443.394-1.572 1.064-2.008 2.68-1.53z" id="Shape" fill="#F4B033"/><path d="M25.712 35.72c.617-.108.66.36 1.15.38-.98 1.404-1.692 4.813-3.448 4.21.532-1.764 1.617-2.975 2.298-4.59z" id="Shape" fill="#DBD27C"/><path d="M62.096 36.102c.447-.064.68.085.766.382-1.32 2.507-1.872 5.78-3.447 8.033.65-3.378.522-6.067 2.68-8.415z" id="Shape" fill="#F26D24"/><path d="M27.627 37.25c.68.276.053.69 0 1.147-.68-.276-.053-.69 0-1.147z" id="Shape" fill="#DBD27C"/><path d="M82.777 37.25c.446.064.32.7.384 1.147-1.192.723-2.51 1.318-3.83 1.913-3.14 1.455-3.214 5.97-6.51 7.267 1.053-5.705 5.192-8.33 9.957-10.327z" id="Shape" fill="#00B58C"/><path d="M66.31 38.397c2.265.595 5.064 2.082 4.595 4.207-2.66-.02-3.798-1.56-5.362-2.678.202-.562.563-.967.766-1.53z" id="Shape" fill="#F4B033"/><path d="M18.818 38.78c2.075 1.242 4.35 2.283 5.745 4.207-1.723 1.328-7.798-1.722-5.745-4.208zM108.438 38.78c1.16.466-.266 1.454-.383 1.912-1.16-.467.266-1.456.383-1.913z" id="Shape" fill="#C3C02F"/><path d="M109.97 38.78c-1.19 9.285-6.968 18.732-12.64 26.39-3.744 5.07-7.063 9.946-11.87 14.154-1.32 1.148-3.034 3.102-4.98 2.677 12.596-11.643 21.265-27.208 29.49-43.22z" id="Shape" fill="#FFF"/><path d="M81.628 40.692c-1.552 1.764-2.14 4.494-4.98 4.973.555-2.763 2.545-4.09 4.98-4.973z" id="Shape" fill="#00B58C"/><path d="M105.757 41.075c1.532.32.98 1.88.383 2.677-.852-.16-.16-1.88-.383-2.677z" id="Shape" fill="#C3C02F"/><path d="M64.776 41.457c1.82.988 4.522 1.095 4.98 3.442-1.904.765-3.65-.935-5.362-1.53-.16-.925.702-.83.382-1.913z" id="Shape" fill="#F4B033"/><path d="M111.12 41.457c1.34-.414 1.02 2.348-.383 1.53.297-.34.413-.86.382-1.53zM17.286 42.222c2.32.744 4.65 1.478 5.745 3.443-2.307-.755-5.244-.882-5.744-3.443zM103.842 42.987c1.287.69 2.298 3.59 0 3.825.34-1.625-1-2.71 0-3.825zM111.5 44.135c.512.254.714.818.768 1.53-1.214-.193-1.35.69-2.68.38-.288-1.56 1.254-1.295 1.913-1.91zM16.52 44.517c1.692 1.243 4.596 1.274 5.745 3.06-2.542.87-4.628-.627-6.51-1.53.202-.563.563-.968.765-1.53z" id="Shape" fill="#C3C02F"/><path d="M64.01 44.9c2.406.404 5.246.372 4.98 3.44-2.16.118-3.99-.094-5.363-.764 0-1.02-.148-2.187.384-2.677z" id="Shape" fill="#F4B033"/><path d="M101.544 44.75h1.15c-.055 3.188 1.68 5.047-.768 6.12-.37-1.986-1.818-3.995-.382-6.12zM99.246 46.43c.99 2.21 2.915 6.482.767 8.415-1.203-1.987-1.788-4.59-1.916-7.65.31-.33 1.054-.223 1.15-.765zM111.5 46.812c1.204.266.502 1.02.385 1.913-1.703-.424-2.788.924-3.83 0-.128-1.913 2.394-1.18 3.446-1.913zM21.5 49.872c-2.777-.032-5.8.18-6.512-1.912 1.852-.18 4.575.435 6.51 1.912zM95.8 47.96c2.106 2.102 1.82 6.597 3.446 9.18-.787.107-.766 1.02-1.15 1.53-1.84-2.275-3.424-6.736-2.297-10.71zM93.5 49.49c.447-.065.682.084.767.38-.66 4.77 3.277 8.5 1.915 11.476-1.584-.477-2.235-2.922-2.682-4.59-.467-1.752-.68-4.07-.765-6.12-.213-.85.735-.54.765-1.147zM112.268 49.872c-.32.447-.5 1.02-.382 1.913-1.234.552-3.214.36-4.98.38.108-3.197 3.543-1.39 5.362-2.293zM14.128 50.255c2.127 1.22 6.15-.276 6.128 2.677-2.554.456-2.937.234-6.128-.382v-2.295zM90.438 51.02c.446-.064.68.084.764.382.448 4.6 3.82 9.69 2.682 13.388-2.617-3.124-3.52-7.958-3.446-13.77zM88.523 52.55c.33-.075.36.148.383.38.435 3.485 1.638 7.088 2.682 10.71.392 1.383 1.69 2.785.382 3.826-2.83-2.89-5.256-9.902-3.447-14.916zM13.963 53.314c1.585.585 3.356.967 5.484.766v1.912c-2.128.393-3.22.213-5.998-.382-.054-.946.077-1.838.513-2.296zM105.757 53.314c2.702-.064 3.48.277 5.744 0-.136 2.54-3.604 1.753-6.127 1.913-.318-1.083.543-.988.384-1.913zM85.842 55.227c.446-.064.68.085.766.382-.224 6.13 3.84 9.87 3.447 14.917-4.128-2.04-5.852-9.998-4.213-15.3zM104.608 55.992c1.373.797 4.14.202 6.13.383-.32.446-.512 1.03-.385 1.912-1.286-.774-4.818.797-6.51-.382-.065-.958.606-1.18.765-1.913zM13.456 56.756c2.777.733 4.958.32 6.51.766-.18 2.37-3.87 1.233-6.127 1.53-.437-.446-.437-1.35-.384-2.296zM83.544 59.05c.33-.073.36.15.382.384.16 5.45 3.597 9.67 3.83 13.77-2.586.49-4.51-6.98-4.98-10.33-.147-1.04.108-2.09 0-3.058.652.138.725-.296.768-.765zM109.587 59.435c-1.234 2.082-5.118 1.34-7.66 1.147.712-2.763 4.543-.478 7.66-1.147zM20.35 60.582c-1.298 2.178-3.808 1.212-6.51 2.294.53-1.093-1.043-1.944 0-2.294 1.436-.18 4.49-.84 6.51 0zM114.566 61.73c.053 1.115-2.46 1.69-4.214 1.912-2.956.372-7.063-.287-9.957 0-.32-1.083.543-.988.382-1.913 4.98-.67 8.82 1.827 13.79 0zM21.116 63.642c-1 1.66-6.787 3.91-7.277.382 3.148.085 5.425-1.87 7.276-.382zM81.246 62.876c.447-.063.682.085.767.384-.202 5.194 3.564 8.393 3.063 12.62-3.14-2.325-4.67-7.935-3.83-13.004zM113.8 64.024c-1.873 4.006-10.32 2.71-14.937 1.53.628-2.04 3.67-.415 5.744-.383 3.214.055 6.46-.7 9.192-1.146zM21.575 65.937v1.913c-2.128.85-3.984 1.094-5.974 1.53-.307-.712-.522-1.403-.65-2.295 2.873.32 3.433-1.02 6.625-1.148zM111.5 67.085c-.158 3.664-11.04 2.146-14.17 0 3.798-.712 10.055 2.156 14.17 0zM95.8 68.614c4.384.722 8.255 1.955 13.405 1.913-2.617 3.028-11.138 1.36-13.788-.382-.055-.692.468-.81.382-1.53zM21.5 69.38c-.033.542-.065 1.084.382 1.147-1.32 1.233-2.99 2.114-5.362 2.295-.223-.797-.946-1.095-.766-2.295 2.203-.095 3.522-1.074 5.745-1.147zM80.097 69.762c1.19 2.433 3.075 6.057 3.065 8.415-2.81-.883-3.608-5.418-3.065-8.415zM93.884 71.29c3.84 1.012 7.31 2.392 12.64 1.915-2.31 3.93-10.16 1.03-13.406 0-.287-1.18 1.054-.733.766-1.914zM22.648 72.44c-.83 1.55-3.138 3.367-5.362 2.294.947-1.605 3-2.103 5.362-2.295zM91.588 73.97c3.478.988 6.564 2.367 11.105 2.294-1.957 3.687-9.15.595-12.255-.383.34-.678.925-1.114 1.15-1.91zM23.797 75.117c-.574 1.977-2.5 2.603-4.596 3.06-.33-.307-.222-1.052-.765-1.147 1.362-.903 3.554-2.688 5.362-1.913zM78.948 75.117c1.042 1.105 2.223 3.75 1.916 4.974-1.735-.575-2.173-3.582-1.916-4.973zM24.946 77.03c-.245 2.433-2.01 3.346-4.213 3.824.064-.446-.085-.68-.383-.764.777-1.775 2.575-2.53 4.596-3.06zM99.246 78.942c.437 1.73-2.66 1.18-4.213 1.148-2.532-.054-5.65-1.106-6.892-1.53 1.883-3.74 7.97 1.76 11.106.382zM25.712 78.942c.415.096.255.765.766.765-.66 1.605-2.606 3.633-4.213 3.06-.872-1.89 2.99-2.018 3.447-3.825zM77.8 78.942c1.35.192 2.244 3.315.382 3.444.298-1.574-.585-1.967-.383-3.444zM96.565 81.238c-2.287 3.282-7.66.192-10.723-.383-.107-.616.36-.66.382-1.148 2.8-.318 6.308 1.828 10.34 1.53zM26.86 80.854c.852-.212.544.734 1.15.766-.51 1.91-1.734 3.112-3.447 3.824 0-.765-1.042-.488-.766-1.53 1.234-.807 2.575-1.508 3.064-3.06zM76.65 81.62c1.746 2.59 2.957 5.715 6.128 6.884-2.893 2.943-8.427-3.39-6.128-6.884zM92.737 83.53c-2.16 2.806-7.32.013-9.193-1.144 2.543-1.988 5.425 1.847 9.193 1.145zM78.948 82.767c3.053.902 4.34 3.568 7.66 4.207-2.51 2.518-6.842-1.39-7.66-4.207zM28.393 83.15c1.202-.182 1.564.478 1.915 1.146-.723 1.638-3.16 4.113-4.596 2.68.48-1.692 2.415-1.924 2.68-3.827zM31.074 85.06c.31.202.617.405 1.15.383-.107 2.19-1.905 2.688-2.3 4.59-.893-.128-1.648-.393-1.914-1.148.755-1.538 2.436-2.155 3.064-3.824zM74.35 85.826c2.31.64 3.022 2.85 4.215 4.59-3.213.47-5.043-2.262-4.214-4.59zM32.99 86.974c.797-.16 1.01.265 1.53.382-.446 2.07-1.584 4.738-3.83 3.825.607-1.57 1.756-2.58 2.3-4.206zM35.67 88.12c1.82 1.287-.128 4.464-1.532 4.974-.755-1.55.702-3.772 1.532-4.973zM72.438 88.505c1.18-.786 2 2.07 2.68 3.06-1.894-.022-1.394-2.433-2.68-3.06zM37.585 89.27c1.042-.28.766.764 1.532.764-.15 2.018-.383 3.953-2.298 4.207-1.586-1.315.87-2.846.765-4.97zM71.288 89.27c1 .583 2.265 2.336 1.53 3.44-2.083.225-2.893-2.43-1.53-3.44zM40.266 90.8c1.085-.32.99.542 1.915.38-.276 1.51-.67 2.912-1.148 4.21-1.085.318-.99-.543-1.915-.384-.02-1.805 1.234-2.336 1.15-4.206zM68.607 90.8c1.458.073 1.33 1.73 1.915 2.677-.766.01-.49 1.042-1.53.765-.332-1.37-1.683-2.508-.385-3.442zM43.33 91.5h1.15c.637 1.063-.214 3.188-.384 4.25h-1.532c-.49 0 .51-2.125.766-4.25zM46.01 92.563h1.533c-.926 1.062.65 5.238-2.298 4.59-.202-1.988.51-3.528.766-4.59zM65.16 92.563h1.915c-.085 1.062.682 1.614.383 3.06-2.19.403-2.19-1.998-2.298-3.06zM49.075 92.71c.617-.105.66.363 1.15.384-.714 1.455.552 4.888-2.3 4.207-.212-2.124.48-3.346 1.15-4.59zM62.48 92.71c2.03.013 1.925 2.16 2.297 3.827-.447-.063-.68.085-.765.383-1.17-.745-1.543-2.286-1.533-4.21zM51.373 93.625h1.53c.64 1.063-.307 2.125 0 4.25H50.99c-.298-2.125.53-3.188.383-4.25zM54.82 93.094c1.648 1.115.882 2.368 1.148 4.973-2.585.68-2.404-4.22-1.15-4.973zM57.117 93.094c.692-.053.81.467 1.532.382-.256 1.913.35 2.965.382 4.59-2.51.202-2.457-3.294-1.915-4.972zM59.798 93.625h1.532c.053 1.063.936 2.368 1.15 3.942-.607.032-1.458-.048-1.533.515-1.298-.616-1.16-3.395-1.15-4.457zM82.395 83.53c1.596-.18 4.054 2.062 6.51 2.296-2.224.81-4.713-1.4-6.51-2.295z" id="Shape" fill="#C3C02F"/><path d="M63.245 18.772c.724-.085.84.568 1.53.515.438-.446.438-2.162.385-2.162h-1.532c-.32 0-.5.765-.383 1.647zm2.68-3.325c.628 1.306.447 3.294-.382 4.207-1.214.585-1.68.14-3.064 0-1.033-2.37-.043-5.163 3.445-4.207zM55.202 20.42c1.075-.33 1.724-1.085 1.532-2.68-.638-.508-1.287-1.008-2.68-.764-.767 1.043-.564 3.678 1.148 3.444zm2.544-3.06v3.06c-7.447 5.068-6.383-8.64 0-3.06z" id="Shape" fill="#000"/><path d="M60.947 97.95c.075-.564.926-.218 1.532-.25-.214-1.573-1.097-3.012-1.15-4.075h-1.532c-.01 1.063-.15 3.708 1.15 4.324zm-1.915.117c-.032-1.625-.638-2.678-.383-4.59-.724.085-.84-.435-1.533-.382-.542 1.677-.595 5.173 1.915 4.972zm-3.064 0c-.266-2.604.5-3.858-1.15-4.973-1.254.754-1.435 5.652 1.15 4.973zm-4.978-.192h1.914c-.308-2.125.64-3.188 0-4.25h-1.53c.147 1.063-.682 2.125-.384 4.25zm13.02-.955c.086-.298.32-.446.766-.383-.372-1.667-.266-3.814-2.298-3.826-.01 1.924.363 3.465 1.533 4.21zm-16.084.38c2.85.682 1.585-2.75 2.298-4.206-.49-.023-.532-.49-1.15-.383-.67 1.244-1.36 2.466-1.148 4.59zm19.532-1.677c.298-1.445-.468-1.998-.383-3.06H65.16c.107 1.062.107 3.463 2.298 3.06zm-22.213 1.53c2.947.647 1.372-3.528 2.298-4.59H46.01c-.255 1.062-.967 2.602-.765 4.59zm-2.68-1.403h1.53c.17-1.062 1.022-3.187.384-4.25h-1.15c-.256 2.125-1.256 4.25-.766 4.25zm26.425-1.51c1.042.28.766-.753 1.53-.764-.584-.946-.456-2.603-1.914-2.677-1.297.934.054 2.07.384 3.44zm-29.873.766c.925-.158.83.702 1.915.383.478-1.297.872-2.7 1.15-4.21-.927.16-.83-.7-1.916-.38.085 1.87-1.17 2.4-1.15 4.206zM72.82 92.71c.733-1.103-.532-2.856-1.53-3.44-1.365 1.01-.555 3.665 1.53 3.44zm-36 1.53c1.914-.253 2.148-2.187 2.297-4.206-.766 0-.49-1.04-1.532-.765.106 2.124-2.35 3.655-.766 4.97zm38.298-2.676c-.682-.988-1.5-3.845-2.68-3.06 1.286.628.786 3.04 2.68 3.06zm-40.98 1.53c1.404-.51 3.35-3.687 1.532-4.973-.83 1.202-2.287 3.423-1.532 4.974zM30.69 91.18c2.246.914 3.384-1.752 3.83-3.824-.52-.117-.733-.542-1.53-.382-.544 1.626-1.693 2.635-2.3 4.207zm47.875-.765c-1.193-1.74-1.906-3.95-4.214-4.59-.828 2.33 1.002 5.06 4.215 4.59zm-50.555-1.53c.266.756 1.02 1.02 1.915 1.15.394-1.903 2.192-2.402 2.298-4.59-.532.02-.84-.182-1.15-.383-.627 1.668-2.308 2.285-3.063 3.824zm60.896-3.06c-2.458-.232-4.915-2.474-6.51-2.294 1.796.895 4.285 3.105 6.51 2.296zm-63.194 1.15c1.436 1.434 3.873-1.04 4.596-2.68-.35-.668-.713-1.328-1.915-1.147-.266 1.904-2.202 2.136-2.68 3.826zm60.896 0c-3.32-.64-4.607-3.306-7.66-4.208.818 2.816 5.15 6.725 7.66 4.207zm-3.064-4.59c1.872 1.158 7.03 3.95 9.193 1.146-3.768.703-6.65-3.132-9.193-1.144zm-.767 6.12c-3.17-1.17-4.382-4.294-6.128-6.884-2.3 3.494 3.235 9.827 6.127 6.885zm-58.98-4.59c-.276 1.04.766.764.766 1.528 1.713-.712 2.936-1.913 3.447-3.824-.606-.032-.298-.98-1.15-.767-.488 1.553-1.83 2.254-3.063 3.06zm62.428-4.208c-.022.49-.49.532-.382 1.148 3.064.575 8.436 3.665 10.723.383-4.034.297-7.543-1.85-10.34-1.53zm-8.043 2.68c1.862-.13.968-3.253-.383-3.445-.203 1.477.68 1.87.382 3.444zm-55.917.38c1.607.573 3.554-1.455 4.213-3.06-.51 0-.35-.67-.766-.765-.457 1.807-4.32 1.934-3.447 3.825zM88.14 78.56c1.244.424 4.36 1.477 6.892 1.53 1.554.03 4.65.583 4.213-1.148-3.136 1.38-9.222-4.123-11.105-.382zm-67.79 1.53c.298.085.447.318.383.764 2.202-.478 3.968-1.39 4.213-3.825-2.02.53-3.82 1.285-4.596 3.06zm60.513 0c.307-1.222-.873-3.87-1.916-4.974-.256 1.392.182 4.4 1.916 4.974zm-62.428-3.06c.543.094.436.84.766 1.146 2.097-.457 4.023-1.083 4.597-3.06-1.808-.774-4 1.01-5.362 1.913zm72.003-1.15c3.106.98 10.298 4.07 12.255.384-4.542.073-7.628-1.306-11.105-2.295-.225.796-.81 1.232-1.15 1.91zm-73.152-1.146c2.224 1.073 4.532-.743 5.362-2.295-2.362.19-4.415.69-5.362 2.294zm75.832-1.53c3.245 1.03 11.097 3.93 13.405 0-5.33.478-8.798-.902-12.64-1.913.29 1.182-1.052.735-.765 1.915zm-9.956 4.972c.01-2.358-1.874-5.982-3.065-8.415-.543 3 .255 7.534 3.065 8.416zm-67.408-7.65c-.18 1.2.543 1.5.766 2.296 2.373-.18 4.043-1.062 5.362-2.295-.447-.064-.415-.605-.383-1.147-2.224.073-3.543 1.052-5.746 1.147zm79.662-.38c2.65 1.74 11.17 3.41 13.788.38-5.15.043-9.02-1.19-13.405-1.912.085.722-.438.84-.384 1.53zm1.915-3.06c3.13 2.145 14.012 3.663 14.17 0-4.115 2.155-10.372-.713-14.17 0zm-82.496 0c.128.89.572 1.582.88 2.294 1.99-.436 3.733-.68 5.86-1.53v-1.913c-3.19.127-3.867 1.467-6.74 1.148zm89.774-1.915c-2.074-.03-5.117-1.656-5.744.384 4.618 1.18 13.064 2.475 14.936-1.53-2.734.446-5.98 1.2-9.192 1.147zM85.075 75.88c.5-4.226-3.265-7.426-3.063-12.62-.085-.3-.32-.447-.766-.384-.84 5.07.69 10.68 3.83 13.005zM13.84 64.025c.49 3.527 6.276 1.276 7.276-.382-1.85-1.488-4.128.467-7.277.382zm86.937-2.295c.16.924-.7.83-.382 1.912 2.895-.287 7 .372 9.957 0 1.755-.223 4.267-.797 4.214-1.913-4.968 1.827-8.81-.67-13.79 0zM13.84 60.58c-1.043.35.53 1.2 0 2.294 2.702-1.083 5.212-.116 6.51-2.294-2.02-.84-5.074-.18-6.51 0zm88.086 0c2.544.192 6.427.935 7.66-1.147-3.116.67-6.947-1.616-7.66 1.147zm-19.15-.765c.108.967-.147 2.018 0 3.06.47 3.346 2.394 10.817 4.98 10.328-.233-4.1-3.67-8.32-3.83-13.77-.022-.234-.052-.458-.382-.383-.043.468-.116.902-.767.765zM13.84 59.05c2.255-.295 5.946.84 6.127-1.528-1.553-.446-3.734-.032-6.51-.766-.054.947-.054 1.85.382 2.295zm90.002-1.146c1.692 1.18 5.224-.392 6.51.382-.127-.882.065-1.466.384-1.912-1.99-.18-4.756.414-6.13-.383-.157.735-.828.958-.764 1.914zM90.055 70.527c.393-5.047-3.67-8.788-3.447-14.918-.085-.298-.32-.447-.766-.383-1.64 5.302.085 13.26 4.213 15.3zm15.32-15.3c2.522-.16 5.99.627 6.127-1.913-2.265.277-3.042-.064-5.744 0 .158.925-.703.83-.384 1.913zm-91.796.382c2.777.595 3.74.775 5.867.382V54.08c-2.128.2-4.03-.18-5.615-.766-.436.458-.305 1.35-.253 2.295zm78.39 11.856c1.308-1.04.01-2.443-.382-3.825-1.043-3.622-2.246-7.225-2.682-10.71-.023-.234-.054-.456-.383-.38-1.81 5.014.617 12.027 3.447 14.916zm1.914-2.676c1.14-3.698-2.234-8.787-2.682-13.388-.084-.298-.318-.446-.764-.382-.075 5.812.83 10.646 3.446 13.77zM14.128 52.55c3.19.616 3.574.838 6.128.38.02-2.95-4-1.454-6.128-2.676v2.296zm92.778-.384c1.766-.02 3.746.17 4.98-.38-.118-.894.063-1.467.382-1.914-1.82.903-5.254-.904-5.362 2.294zm-14.17-1.53c.085 2.052.297 4.368.765 6.12.448 1.67 1.098 4.114 2.683 4.59 1.362-2.974-2.574-6.704-1.914-11.474-.087-.297-.322-.446-.77-.382-.03.605-.978.297-.763 1.147zm5.36 8.034c.384-.51.363-1.424 1.15-1.53-1.626-2.583-1.34-7.076-3.447-9.18-1.128 3.974.456 8.435 2.297 10.71zM14.99 47.96c.713 2.093 3.735 1.88 6.51 1.912-1.935-1.477-4.658-2.093-6.51-1.912zm93.067.765c1.042.924 2.128-.424 3.83 0 .117-.893.82-1.647-.383-1.913-1.053.732-3.575 0-3.447 1.913zm-9.958-1.53c.128 3.06.713 5.662 1.916 7.65 2.15-1.934.223-6.206-.767-8.416-.095.542-.84.435-1.15.764zm3.83 3.676c2.447-1.073.712-2.932.766-6.12h-1.15c-1.435 2.125.012 4.134.383 6.12zm-38.3-3.293c1.375.67 3.203.882 5.364.765.267-3.07-2.573-3.037-4.978-3.442-.533.49-.384 1.657-.384 2.677zm-47.873-1.53c1.883.903 3.97 2.4 6.51 1.53-1.148-1.787-4.052-1.818-5.744-3.06-.202.562-.563.967-.766 1.53zm93.833 0c1.33.308 1.467-.573 2.68-.382-.053-.712-.254-1.275-.766-1.53-.658.615-2.2.35-1.913 1.91zm-5.745.765c2.298-.234 1.287-3.134 0-3.825-1 1.115.34 2.2 0 3.825zm-80.81-1.147c-1.097-1.966-3.426-2.7-5.746-3.443.5 2.56 3.437 2.688 5.745 3.443zm87.705-2.678c1.403.818 1.723-1.944.382-1.53.03.67-.086 1.19-.383 1.53zm-46.343.383c1.712.596 3.458 2.295 5.362 1.53-.458-2.348-3.16-2.456-4.98-3.443.32 1.084-.54.988-.382 1.913zm41.746.38c.596-.796 1.15-2.356-.383-2.676.224.798-.47 2.52.383 2.677zm-29.49 1.915c2.84-.478 3.427-3.21 4.98-4.973-2.437.882-4.427 2.21-4.98 4.973zm3.83 36.337c1.946.425 3.66-1.53 4.98-2.677 4.808-4.208 8.127-9.085 11.87-14.153 5.672-7.66 11.45-17.106 12.64-26.392-8.225 16.012-16.894 31.577-29.49 43.222zm27.575-41.31c.117-.458 1.543-1.445.383-1.913-.117.456-1.544 1.445-.383 1.912zm-83.492 2.295c-1.394-1.924-3.67-2.965-5.745-4.208-2.053 2.485 4.022 5.535 5.745 4.207zm40.98-3.06c1.564 1.116 2.702 2.656 5.362 2.677.468-2.125-2.33-3.612-4.596-4.207-.204.562-.565.967-.767 1.53zm7.277 7.65c3.298-1.296 3.372-5.812 6.51-7.267 1.32-.595 2.638-1.19 3.832-1.913-.065-.446.063-1.084-.384-1.147-4.766 1.997-8.905 4.622-9.958 10.327zm-45.193-9.18c.053-.457.68-.87 0-1.147-.053.457-.68.87 0 1.147zm31.788 6.12c1.575-2.252 2.128-5.525 3.447-8.033-.085-.297-.32-.446-.766-.382-2.16 2.348-2.032 5.037-2.68 8.415zm-36-4.207c1.755.604 2.467-2.805 3.446-4.208-.488-.02-.53-.488-1.148-.382-.68 1.615-1.766 2.826-2.298 4.59zm44.043-3.443c1.234 1.445 2.35 3.007 4.595 3.443.16-.733 1.097-.69.767-1.913-1.117-.797-3.053-.775-2.68-3.06-1.618-.478-2.288-.042-2.682 1.53zm16.086-2.295c-6.926 1.88-12.416 5.195-13.022 13.388 2.213-1.605 2.032-4.24 3.447-6.12 2.488-3.327 6.627-4.527 10.34-6.504-.043-.466-.118-.902-.766-.764zm-25.278 9.945c.266-3.942 1.468-6.948 3.064-9.562-4.33-1.032-5.915 7.533-3.064 9.562zm-3.83-9.18c-.606 1.435.054 6.087 1.532 5.355-.925-1.572 1.713-4.898 1.15-6.12-.575.573-1.682.616-2.682.764zM21.5 39.16c1.733-.382 3.978-4.07 2.68-4.973-.83 1.72-2.564 2.54-2.68 4.972zm-1.533-1.53c1.436-.998 3.532-3.347 3.064-4.973-1.01 1.668-2.53 2.826-3.063 4.97zm32.937-3.06c.894-.128 1.586-.458 2.298-.766.18-1.838-1.106-2.21-2.68-2.295-.522 1.13-.48 2.372.382 3.062zm17.235-.383c2.073.223 3.22 1.37 3.446 3.44 1.67-.115 2.51-1.06 3.063-2.294-1.255-2.847-5.33-6.267-6.51-1.147zm-45.577-3.06c.02 1.69 2.98 5.63 5.362 4.972-1.426-1.806-3.192-5.153-5.362-4.972zm49.788-1.148c-.095 1.837 2.83 3.74 4.215 5.354.563-1.7-1.384-3.888-1.916-5.736-.947-.053-1.84-.053-2.3.382zm6.13 4.952c1.032-2.063-.98-3.996-1.15-6.12H77.8c-.086 1.06 1.253 4.79 2.68 6.12zm-24.512-4.187c.075 1.647 3 3.295 4.98 1.53.66-4.717-5.13-4.74-4.98-1.53zM31.84 34.19c-1.266-2.307-3.138-4.007-4.98-5.738-1.137 2.007 2.108 5.29 4.98 5.737zm50.937-.32c.3-2.592-.498-3.995-.764-6.12H80.48c.032 3.188 1.393 4.218 2.297 6.12zm1.15-.445c1.915-.13 1.775-6.42-.383-6.12-.065 2.88.532 2.954.382 6.12zM52.52 29.6c1.108.914 2.927.095 3.065-1.148-.297-.085-.446-.318-.383-.765-.457-.435-1.35-.435-2.298-.382.277 1.17-.66 1.125-.383 2.295zm12.256 4.207c-1.286-2.412-2.053-5.343-4.212-6.885 1.383 3.167 1.277 5.515 4.212 6.885zm-31.02-3.825c1.83.127 4.457-2.01 2.68-3.06-.68 1.232-2.52 1.307-2.68 3.06zm-4.98-3.06c.18 1.774 2.436 6.29 5.362 5.355-1.958-1.402-2.713-5.898-5.362-5.356zm3.447 1.147c1.957-.213 3.106-1.234 3.447-3.06-1.298.87-3.085 1.254-3.447 3.06zm36.384 3.442c-3.957 3.603-8.436 9.35-6.51 15.683 2.212-10.072 6.98-16.915 15.702-19.89 2.04-.7 4.53-.49 6.51-1.913-6.096-1.987-11.916 2.677-15.703 6.12zm-1.915.383c1.627-3.06-3.308-5.07-4.98-7.27.927 3.158 1.608 6.557 4.98 7.27zM68.99 29.6c.085-.298.32-.446.766-.383-1.064-2.89-3.766-4.143-6.51-5.354 1.36 2.464 3.563 4.09 5.744 5.737zm-12.64-2.68c1.65.118 3.097.033 3.065-1.528-.638-2.656-4.893-1.285-3.064 1.53zm-1.914-.764c.01-1.158.224-2.518-1.15-2.294-.71.754-.562 2.816 1.15 2.294zm17.617 1.15c-1.426-1.648-3.84-4.315-6.51-3.443 2.725.35 4.075 4.09 6.51 3.442zm-40.596-1.532c1.192-.467 2.48-.84 2.68-2.295-1.254.404-2.127 1.19-2.68 2.294zm41.745.382c2.682-1.275 6.14-1.774 8.81-3.06-3.372-.89-7.117 1.01-8.81 3.06zm-33.32 1.53c-.276-2.528-2.733-2.88-2.68-5.736-2.543 1.402.276 5.642 2.68 5.737zm33.32-3.44c2.448-1.255 5.022-2.38 8.426-2.68-1.49-2.23-7.765-1.04-8.426 2.68zm-31.404 1.91c-.936-1.997-1.405-4.462-2.298-6.502-2.936 1.785.532 7.066 2.298 6.502zm26.043-4.59c.725.935 1.575 1.744 3.448 1.53 1.128-1.2.543-2.433 0-3.825-2.128-.21-3.468.364-3.447 2.297zm-24.127 3.507c.032-1.414-1.14-4.76-1.532-6.885h-1.148c.32 2.125.032 6.024 2.68 6.885zM74.35 20.8c.98-1.188 3.587-.753 4.597-1.91-1.5-1.732-6.192-.437-4.596 1.91zM45.63 24.394c1.872-1.73-1.15-4.08-.383-7.268h-1.532c-.043 4.25-.032 5.335 1.915 7.268zm3.064-.914c.83-1.764-1.883-4.824-.383-7.27-.49-.02-.533-.486-1.15-.38-.958 2.7-1 5.992 1.532 7.65zm22.213-8.798c-1.16 1.18.277 3.018 1.148 3.443 1.203-.33 2.352-.712 2.682-1.914-.31-1.38-2.563-2.315-3.83-1.528zM57.883 15.83c-2.617-3.603-8.223.138-5.745 5.737 1.894.022 2.288 1.54 4.596 1.148 2.458-1.276 2.34-5.25 1.15-6.885zm-6.128 6.502c-2.446-1.36-1.84-6.663.766-8.032-4.765-1.254-4.062 9.297-.765 8.032zm12.64-.765c3.733-.458 4.797-7.927 0-7.65-6.17.362-4.735 8.223 0 7.65zm-4.597-6.12v-1.913h-1.915c-.085 1.36.554 1.997 1.915 1.913zm-8.043 8.415c-11.308 1.455-18.34 10.497-25.66 17.212-2.532 5.44-5.68 11.476-4.98 18.743 1 10.4 4.927 19.476 10.725 24.48 7.436 7.098 30.17 12.102 39.83 3.442 3.043-2.72 6.374-10.616 7.278-16.065.447-2.73.01-5.632.767-8.034 1.53-4.876 5.043-7.574 7.66-11.475 8.967-5.194 18.405-9.924 24.127-18.36 3.085 8.374 1.84 20.168-1.15 27.54 3.758.564 5.11-1.273 7.662-1.91-4.862 10.697-13.757 17.372-22.215 24.48-4.5 1.816-9.363 4.896-14.936 6.884-2.693.954-5.533 1.603-8.044 2.676-4.01 1.72-6.99 4.558-12.256 5.355-8.723 1.33-15.98-1.7-24.894-3.44-9.734-5.07-15.82-13.78-21.065-23.333.5-2.506-1.106-4.473-1.532-6.502C9.85 50.34 18.393 36.21 25.713 28.07c8.957-7.298 24.394-17.106 40.212-16.447 7.745.33 13.49 3.877 17.62 8.798 7.115 14.398-2.194 30.335-17.62 29.07-12.297-1.01-18.712-12.665-14.17-25.628z" fill="#000"/></g></svg>