<svg width="122" height="119" viewBox="0 0 122 119" xmlns="http://www.w3.org/2000/svg"><title>shop_btn</title><g fill="none" fill-rule="evenodd"><path d="M71.205 29.823c-1.532.02-1.032-2.095-1.15-2.68-1.085-5.215-4.19-10.38-11.106-9.18-3.203.563-8.065 3.603-8.81 7.27-.404 1.985 1.767 5.672 0 7.266-3.15-2.477-1.87-9.988.767-12.623.82-.82 3.84-2.614 5.362-3.06 2.594-.755 7.265-.723 9.19 0 2 .754 5.97 4.812 6.512 8.033.233 1.403.51 3.72-.767 4.973z" id="Shape" fill="#E0383E"/><path d="M68.14 29.44c-2.51-1.69-1.288-3.56-2.297-5.355-3.14-5.578-11.192-2.794-12.64 3.06-.307 1.233 1.725 3.877-1.148 4.59-5.075-13.844 19-17.584 16.086-2.295z" id="Shape" fill="#F05E51"/><path d="M88.82 40.15c.587-3.623 3.247-6.587 2.682-10.327-.403-2.7-3.424-5.92-6.128-6.504-5.957-1.264-8.935 3.21-11.488 7.268-1.98-1.69 1.797-6.365 3.063-7.27 2.105-1.496 6.436-2.305 8.807-1.91 7.958 1.328 10.767 14.64 3.064 18.742zM65.076 29.44c-1.818-1.86-1.627-4.686-4.212-4.973-3.436-.382-3.416 2.806-4.98 5.737-5.724-8.276 12.682-11.496 9.192-.764z" id="Shape" fill="#E0383E"/><path d="M87.29 37.855c-1.808-2.252.68-3.676.382-6.12-.5-4.112-5.372-5.387-8.807-3.442-1.447.82-1.5 2.295-3.065 3.06.905-2.975 2.32-5.685 4.595-6.502 7.874-2.826 13.214 7.82 6.895 13.005z" id="Shape" fill="#F05E51"/><path d="M61.246 25.614c-.106 1.255 1.19 1.106 1.53 1.914-.21.68-.2 1.593-.764 1.912-1.608.138-.278-1.243-.383-1.912-.256-.51-.82-.712-1.533-.766-.543.14-1.31 1.955-.382 2.295-.33.574-.968.828-1.916.766-.15-2.688.648-4.452 3.446-4.21z" id="Shape" fill="#F4B033"/><path d="M48.224 33.648c-2.276.722-3.713-1.966-5.744-2.678-11.68-2.667-16.447 12.145-8.426 16.83-.233 1.17-.82 1.998-1.148 3.06-5.14-1.753-8.82-7.788-6.13-13.77.884-1.976 6.746-7.607 9.194-8.415 4.84-1.594 10.467-.266 12.254 4.973z" id="Shape" fill="#E0383E"/><path d="M80.98 31.352v1.528c1.063.245 2.127.767 3.19 0v-1.528c0-.562-2.127-.562-3.19 0zm4.01 4.59c-2.116-1.455-3.988-3.156-7.275-3.442.85-7.937 13.118-2.275 7.276 3.443z" id="Shape" fill="#F4B033"/><path d="M79.63 35.943c-4.68-2.37-12.022-3.963-17.235-4.208-14.096-.638-24.607 15.15-26.808 27.158-2.62 14.302 5.04 23.205 14.553 26.776 9.745 3.664 22.97-.618 29.106-4.975 5.31-3.77 11.768-12.388 12.64-19.89.478-4.112-1.308-6.96-2.298-10.71-.67-2.55-1.17-5.1-2.298-7.65-2.448-1.732-4.246-4.77-7.66-6.502zm-14.17-5.355c6.138.116 16.998 3.76 20.68 7.267 1.777 1.7 5.978 8.042 7.277 10.71 2.436 5.015.416 15.853-1.916 20.273-.945 1.806-3.54 4.674-5.743 7.267-5.628 6.64-9.84 11.285-19.915 13.39-9.883 2.07-19.948-2.296-26.427-7.653-6.14-5.07-10.468-14.63-8.043-25.627 1.255-5.663 6.788-13.982 10.723-17.596 5.055-4.632 13.003-8.213 23.364-8.032z" id="Shape" fill="#00B58C"/><path d="M84.17 31.352v1.528c-1.063.767-2.127.245-3.19 0v-1.528c1.063-.562 3.19-.562 3.19 0zM56.267 33.648c-3.543.69-9.48 5.556-12.256 8.796-4.542 5.302-7.797 14.302-7.66 21.804.236 12.718 9.745 20.847 21.832 21.42 6.32.31 11.756-1.912 15.704-3.825 1.54-.743 3.616-1.232 4.594-1.912 5.554-3.834 12.735-13.96 12.257-21.42-.224-3.474-2.267-10.912-3.447-13.387-3.48-7.3-15.35-12.75-27.958-11.475-.448.052-2.3-.15-3.065 0zm31.023 8.796c1.128 2.55 1.627 5.1 2.298 7.65.99 3.75 2.776 6.598 2.298 10.71-.872 7.502-7.33 16.12-12.64 19.89-6.138 4.357-19.36 8.64-29.106 4.974-9.51-3.57-17.172-12.474-14.553-26.776 2.2-12.007 12.712-27.795 26.808-27.158 5.213.243 12.555 1.837 17.234 4.208 3.414 1.732 5.212 4.77 7.66 6.502z" id="Shape" fill="#000"/><path d="M45.543 35.177c-1.65 1.637-3.16-.68-4.98-.764-3.275-.15-6.606 2.007-6.892 5.354-.265 3.05 2.49 3.612 1.53 6.885-11.594-4.813 3.578-21.718 10.343-11.475z" id="Shape" fill="#F05E51"/><path d="M59.33 33.648c12.61-1.275 24.48 4.175 27.96 11.475 1.18 2.475 3.222 9.913 3.446 13.388.478 7.46-6.703 17.586-12.257 21.42-.98.68-3.054 1.17-4.595 1.913-3.948 1.913-9.384 4.134-15.704 3.826-12.085-.575-21.595-8.704-21.83-21.422-.138-7.502 3.118-16.5 7.66-21.804 2.776-3.24 8.712-8.106 12.256-8.796.767-.15 2.618.052 3.065 0z" id="Shape" fill="#DBD27C"/><path d="M36.735 40.285c.563.2.968.45 1.53.642.363-.755 1.246-1.74.383-2.802h-1.53c.32 1.063-.542 1.246-.383 2.16zm6.51-2.813c-3.596.87-3.723 5.206-7.276 6.12-3.523-5.77 4.275-11.028 7.275-6.12z" id="Shape" fill="#F4B033"/><path d="M37.117 38.125h1.53c.864 1.063-.02 2.17-.38 2.925-.564-.192-.97-.686-1.532-.888-.16-.914.702-.974.382-2.037z" id="Shape" fill="#000"/><path d="M94.95 63.1c-.522-3.645 3.17-2.253 4.595-2.678 3.863-1.137 7.734-4.378 6.894-10.328-.555-3.89-3.97-8.234-9.576-8.034-2.606.096-4.085 2.53-6.128.382 5.552-4.707 13.48-1.35 16.085 3.442 2.16 3.985 2.49 8.51-.38 13.005-1.916 3-7.48 7.1-11.49 4.21z" id="Shape" fill="#E0383E"/><path d="M95.716 59.275c-.51-.733.277-1.54-.383-2.678 6.905 1.084 9.65-6.62 5.744-10.71-2.446-1.625-6 .107-7.66 0-.064-3.22 4.757-2.837 6.512-2.295 7.393 2.274 7.668 17-4.214 15.683z" id="Shape" fill="#F05E51"/><path d="M96.098 51.625c1.606.66 1.83.66 3.447 0-.447-1.212-.2-3.113-1.915-3.06-.66.882-1.956 1.105-1.532 3.06zm-.766 3.06c.436-3.103-.596-4.76-.766-7.268 7.915-5.62 10.032 10.392.766 7.267z" id="Shape" fill="#F4B033"/><path d="M97.63 48.565c1.713-.053 1.468 1.848 1.915 3.06-1.617.66-1.84.66-3.447 0-.424-1.955.872-2.178 1.532-3.06z" id="Shape" fill="#000"/><path d="M31.756 52.773c-6.66-1.488-10.64 2.847-13.022 6.885-1.97 10.92 4.575 15.192 14.555 15.3-3.226 2.782-8.714 1.69-11.492-.384-1.37-1.02-4.256-4.622-4.596-6.12-1.116-4.834 1.895-13.673 4.98-15.682 2.265-1.466 7.35-2.89 9.574 0z" id="Shape" fill="#E0383E"/><path d="M31.373 54.684c-5.426.967-10.138 3.23-10.34 8.033-.235 5.696 5.808 7.725 10.723 9.562-.447 1.902-2.682 1.254-3.83 1.147-3.182-.287-7.363-3.58-8.044-6.502-1.468-6.27 2.01-10.55 6.13-13.005 1.212.84 4.67-1.84 5.36.764z" id="Shape" fill="#F05E51"/><path d="M30.607 56.98c-8.277-.797-7.884 13.335 0 12.623-3.586 1.03-6.18-2.232-8.043-4.208-.085-1.997.01-3.814.382-5.355 1.736-1.372 4.842-5.303 7.66-3.06z" id="Shape" fill="#E0383E"/><path d="M29.075 64.858c.52-.488.52-1.233 0-2.296h-1.15c-1.17 1.063-.467 2.233 1.15 2.296zm1.15 3.215c-6.448.126-5.447-9.382-.767-9.945 2.14 1.944-.213 6.545.766 9.945z" id="Shape" fill="#F4B033"/><path d="M27.926 62.563h1.15c.52 1.062.52 1.807 0 2.294-1.618-.062-2.32-1.232-1.15-2.294z" id="Shape" fill="#000"/><path d="M93.746 65.012c8.51 3.422 8.55 18.572 1.175 22.568-4.616 2.508-13.41 2.23-14.155-4.207 2.69 1.115 4.64 3.464 7.64 3.443 12.893-.086 13.852-14.674 5.34-20.273v-1.53z" id="Shape" fill="#E0383E"/><path d="M82.31 81.46c4.51 2.178 11.373 4.08 13.788-1.53.51-5.355-.68-9-3.83-10.71.2-.308.404-.615.382-1.146 2.734.562 5.522 4.792 5.745 8.032.598 8.712-11.7 12.94-16.084 5.354z" id="Shape" fill="#F05E51"/><path d="M91.502 70.368c3.79 1.413 4.766 8.2 1.916 11.09-2.775.724-7.18 1.094-9.575-1.146 1.522-2.412 3.5.37 5.745 0 2.084-.34 3.213-1.88 3.447-3.443.35-2.337-2.02-4.26-1.533-6.502z" id="Shape" fill="#E0383E"/><path d="M88.44 77.635c.296.085.754.01.765.382 1.16-.245 1.755-1.052 1.532-2.678-.724.084-.852-.426-1.532-.383-.83.33-.884 1.414-.766 2.678zm1.53-4.972c4.49 1.826.245 8.86-3.83 5.354.66-2.4 2.884-3.24 3.83-5.354z" id="Shape" fill="#F4B033"/><path d="M89.204 74.958c.68-.043.81.467 1.532.382.223 1.625-.373 2.432-1.532 2.678-.01-.372-.468-.297-.766-.382-.117-1.265-.064-2.35.766-2.678z" id="Shape" fill="#000"/><path d="M35.587 79.164c-4.214 4.813-3.447 13.483 2.296 16.066 3.607.255 6.586.924 9.192 0 3.096-1.085 2.745-4.197 5.363-5.355 1.552 3.443-2.097 6.46-4.98 7.268-2.16.605-6.01.425-7.66 0-1.32-.34-2.786-.787-4.21-1.913-5.162-4.07-7.16-14.057-2.3-17.977 1.522-.118 1.032 1.774 2.3 1.91z" id="Shape" fill="#E0383E"/><path d="M36.352 80.694c1.086.447 1.53 1.53 2.682 1.914-1.905 3.082-1.266 8.033 1.53 9.562 1.96-.106 3.257.096 4.597-.38 1.97-.692 2.543-3.254 4.213-2.68 1.968.893-.968 2.975-1.15 4.208-3.786 1.53-9.403 1.498-12.254-.766-1.948-2.868-2.3-9.52.382-11.858z" id="Shape" fill="#F05E51"/><path d="M40.18 84.137c.81.35 1.705.596 2.3 1.148-.352.68-1.416.64-1.533 1.53.447.574.33 1.71 1.532 1.53 1.618-.235 1.403-.85 1.147-2.295 1.427.234 1.884 1.444 3.447 1.53C46 94.274 35.256 89.6 40.18 84.136z" id="Shape" fill="#F4B033"/><path d="M79.63 85.285c1.086 8.617-2.48 12.57-6.893 15.683.743-2.252 3.787-4.462 4.595-8.033.49-2.136.042-4.186 0-6.884.797-.212 1.096-.945 2.297-.765z" id="Shape" fill="#E0383E"/><path d="M76.567 87c.585 7.438-2.81 13.593-9.193 13.678-4.256.064-9.5-3.457-8.043-9.61 2.607 2.88 2.904 7.05 7.278 7.338 6.383.436 7.956-6.092 8.81-11.405h1.15z" id="Shape" fill="#F05E51"/><path d="M72.353 88.063h1.15c2.138 9.562-11.67 11.35-11.873 2.818 3.138.82 3.5 4.456 6.893 3.755 2.458-.5 3.48-2.323 3.83-6.573z" id="Shape" fill="#E0383E"/><path d="M67.374 92.935c1.362.085 2-.553 1.916-1.912-1.384-1.01-3 .596-1.916 1.912zm3.065-3.825c.072 1.477.01 2.825-.384 3.825-.915.765-3.555.022-3.83.383-1.13-.15-.745-1.795-1.532-2.295 2.063-.49 3.447-1.658 5.745-1.913z" id="Shape" fill="#F4B033"/><path d="M55.884 90.188h1.15c1.34 5.312 2.244 9.342 6.892 10.936 1.192.413 3.31-.53 4.214 1.033-7.756-.042-13.533-3.47-12.256-11.97z" id="Shape" fill="#E0383E"/><path d="M69.29 91.023c.085 1.36-.554 1.997-1.916 1.912-1.085-1.316.532-2.922 1.916-1.912z" id="Shape" fill="#000"/><path d="M68.14 102.27c-.903-1.56-3.02-.846-4.213-1.26-4.648-1.593-5.552-5.51-6.894-10.823h-1.15c-1.276 8.5 4.5 12.042 12.258 12.084zm-3.447-11.247c.787.5.404 2.146 1.53 2.295.277-.362 2.916.38 3.832-.383.393-1 .457-2.348.383-3.825-2.297.255-3.68 1.424-5.745 1.913zm3.83 3.682c-3.393.7-3.755-3.078-6.893-3.896.202 8.53 14.01 6.815 11.872-2.748h-1.15c-.35 4.25-1.37 6.145-3.83 6.643zM75.417 87c-.853 5.313-2.426 11.818-8.81 11.383-4.372-.287-4.67-4.434-7.276-7.314-1.457 6.15 3.788 9.695 8.044 9.63 6.383-.084 9.777-6.262 9.193-13.7h-1.15zm1.915-.95c.042 2.698.49 4.75 0 6.884-.81 3.57-3.852 5.78-4.595 8.033 4.414-3.114 7.98-7.065 6.892-15.683-1.202-.18-1.5.554-2.298.766zm-30.257 1.53c-1.564-.085-2.02-1.296-3.447-1.53.256 1.445.47 2.06-1.148 2.296-1.202.18-1.086-.956-1.532-1.53.117-.892 1.18-.85 1.532-1.53-.595-.552-1.49-.797-2.298-1.148-4.926 5.46 5.82 10.137 6.893 3.442zM35.97 92.553c2.85 2.264 8.467 2.295 12.254.766.18-1.234 3.117-3.316 1.15-4.21-1.67-.573-2.244 1.988-4.213 2.68-1.34.477-2.637.276-4.595.38-2.8-1.528-3.436-6.48-1.53-9.56-1.15-.383-1.597-1.468-2.683-1.915-2.68 2.338-2.33 8.99-.383 11.858zm-2.68-15.3c-4.863 3.92-2.863 13.908 2.297 17.977 1.425 1.126 2.892 1.572 4.21 1.913 1.65.425 5.502.605 7.66 0 2.884-.808 6.533-3.825 4.98-7.268-2.617 1.158-2.266 4.27-5.362 5.355-2.605.925-5.585.255-9.192 0-5.743-2.583-6.51-11.252-2.296-16.066-1.267-.137-.777-2.03-2.298-1.91zm52.85.764c4.076 3.507 8.32-3.528 3.83-5.354-.946 2.114-3.17 2.953-3.83 5.354zm6.895-1.148c-.235 1.562-1.363 3.102-3.447 3.442-2.244.37-4.224-2.412-5.745 0 2.394 2.24 6.8 1.87 9.575 1.147 2.85-2.892 1.873-9.68-1.916-11.092-.488 2.242 1.883 4.165 1.533 6.5zm5.36-.765c-.222-3.24-3.01-7.47-5.744-8.032.023.53-.18.838-.38 1.147 3.148 1.71 4.34 5.354 3.83 10.71-2.416 5.61-9.278 3.707-13.787 1.53 4.38 7.587 16.68 3.358 16.083-5.355zm-4.65-9.562c8.512 5.6 7.56 20.187-5.333 20.273-3 .023-4.955-2.327-7.647-3.443.744 6.438 9.532 6.716 14.15 4.207 7.374-3.995 7.342-19.146-1.17-22.568v1.53zM29.46 58.128c-4.68.563-5.68 10.07.766 9.945-.98-3.4 1.373-8-.766-9.945zm-6.51 1.91c-.374 1.542-.468 3.36-.383 5.356 1.862 1.976 4.456 5.24 8.043 4.208-7.884.71-8.277-13.42 0-12.623-2.82-2.243-5.926 1.688-7.66 3.06zm3.064-6.118c-4.118 2.456-7.597 6.736-6.13 13.005.682 2.922 4.862 6.216 8.044 6.502 1.15.107 3.384.755 3.83-1.148-4.914-1.838-10.957-3.867-10.723-9.563.202-4.803 4.915-7.065 10.34-8.033-.692-2.603-4.15.076-5.36-.764zm-3.83-1.147c-3.085 2.01-6.096 10.848-4.98 15.682.34 1.498 3.223 5.1 4.595 6.12 2.776 2.073 8.266 3.166 11.49.383-9.98-.108-16.522-4.378-14.554-15.3 2.383-4.038 6.36-8.373 13.022-6.884-2.223-2.892-7.308-1.468-9.574 0zm72.384-5.355c.17 2.507 1.202 4.165.766 7.267 9.266 3.124 7.15-12.888-.766-7.267zm5.363-3.826c-1.756-.542-6.577-.924-6.512 2.295 1.66.107 5.213-1.625 7.66 0 3.904 4.09 1.16 11.794-5.745 10.71.66 1.136-.128 1.944.383 2.678 11.882 1.317 11.607-13.41 4.213-15.683zm6.51 15.3c2.87-4.495 2.543-9.02.382-13.005-2.606-4.792-10.532-8.15-16.085-3.443 2.043 2.147 3.522-.287 6.128-.38 5.607-.202 9.02 4.142 9.575 8.032.84 5.95-3.032 9.19-6.894 10.328-1.426.424-5.118-.967-4.596 2.678 4.01 2.887 9.574-1.213 11.49-4.21zm-70.47-15.3c3.552-.913 3.68-5.248 7.275-6.12-3-4.908-10.798.35-7.276 6.12zm-.767 3.06c.957-3.272-1.797-3.835-1.53-6.884.286-3.347 3.616-5.504 6.892-5.354 1.82.084 3.33 2.4 4.98.764-6.767-10.244-21.94 6.662-10.342 11.475zm6.893-8.033c-3.935 3.612-9.468 11.93-10.723 17.595-2.425 10.997 1.904 20.56 8.044 25.627 6.478 5.357 16.543 9.723 26.426 7.652 10.075-2.104 14.288-6.748 19.915-13.39 2.203-2.59 4.8-5.46 5.744-7.266 2.33-4.42 4.352-15.258 1.916-20.273-1.3-2.668-5.5-9.01-7.277-10.71-3.68-3.506-14.542-7.15-20.68-7.267-10.362-.18-18.31 3.4-23.364 8.03zm35.62-6.12c3.287.287 5.16 1.987 7.276 3.443 5.84-5.718-6.426-11.38-7.276-3.443zM35.97 28.675c-2.45.808-8.31 6.44-9.194 8.415-2.69 5.982.99 12.017 6.13 13.77.328-1.062.914-1.89 1.147-3.06-8.02-4.685-3.255-19.497 8.426-16.83 2.03.712 3.468 3.4 5.743 2.678-1.786-5.238-7.414-6.567-12.254-4.973zm21.83 1.148c.947.063 1.584-.192 1.915-.766-.927-.34-.16-2.156.382-2.295.713.054 1.277.255 1.532.766.105.67-1.225 2.05.382 1.912.563-.32.553-1.232.765-1.912-.34-.808-1.637-.66-1.53-1.914-2.8-.243-3.597 1.52-3.448 4.21zm22.595-4.973c-2.276.818-3.69 3.527-4.595 6.502 1.564-.765 1.618-2.24 3.065-3.06 3.435-1.945 8.308-.67 8.807 3.442.298 2.444-2.19 3.868-.382 6.12 6.32-5.184.98-15.83-6.895-13.004zm-24.51 5.354c1.563-2.932 1.542-6.12 4.98-5.737 2.584.288 2.393 3.114 4.21 4.973 3.49-10.732-14.915-7.512-9.19.764zm29.872-8.796c-2.37-.395-6.702.414-8.808 1.91-1.266.905-5.044 5.58-3.064 7.27 2.552-4.06 5.53-8.532 11.488-7.27 2.704.587 5.725 3.805 6.128 6.505.565 3.74-2.095 6.704-2.68 10.327 7.702-4.102 4.893-17.414-3.065-18.742zM52.055 31.735c2.873-.713.84-3.357 1.148-4.59 1.448-5.854 9.5-8.638 12.64-3.06 1.01 1.795-.213 3.666 2.298 5.355 2.916-15.29-21.16-11.55-16.085 2.295zM71.97 24.85c-.543-3.22-4.51-7.28-6.51-8.033-1.927-.723-6.597-.755-9.193 0-1.52.446-4.543 2.24-5.362 3.06-2.637 2.634-3.916 10.146-.766 12.622 1.765-1.595-.406-5.282 0-7.268.743-3.666 5.606-6.706 8.807-7.268 6.915-1.202 10.02 3.963 11.107 9.18.117.584-.383 2.7 1.15 2.68 1.277-1.255 1-3.57.766-4.974zm.767 1.147c5.722-8.288 20.425-7.746 21.83 3.826.436 3.623-1.17 7.128-2.68 10.327 8.787-3.177 17.042 2.508 18 9.945.318 2.528-1.012 8.01-3.447 10.71-2.117 2.347-5.596 4.366-9.575 4.59 5.064 5.014 6.905 18.02-.767 22.95-3.84 2.476-10.64 2.337-14.936-.766 2.043 16.798-25.075 22.694-26.426 4.972-2.586 4.154-7.64 6.757-13.79 6.12-4.54-.467-6.924-3.77-9.573-5.737-1.51-4.526-3.192-11.23-.382-14.918-6.585.054-13.98-3.76-14.937-9.944-1.265-8.14 3.597-18.137 12.257-17.978-1.245-1.563-2.926-5.993-3.83-9.18 1.553-6.737 6.075-10.51 11.49-13.388 4.86-.266 9.02.17 11.49 2.295-4.608-16.468 25.51-20.22 25.277-3.825z" fill="#000"/></g></svg>