<svg width="219" height="88" viewBox="0 0 219 88" xmlns="http://www.w3.org/2000/svg"><title>valentina_logo</title><g fill="#0B0B0A" fill-rule="evenodd"><path d="M144.55 34.278c.198.083.57.11 1.11.076.543-.032.974-.127 1.29-.28.318-.15.89-.463 1.112-1.214.342-1.144.31-2.64.31-2.64.06-3.075-1.605-5.004-4.78-4.057-.227.13-.44.305-.633.517-.39.423-.574 1.782-.55 4.078.235 1.25.602 2.127 1.096 2.633.494.51.84.804 1.043.888m56.205 23.37c-.21 7.362-1.602 13.033-4.176 17.007-2.58 3.975-4.695 4.847-6.354 2.614-1.658-2.232-1.473-7.29.556-15.187 2.03-7.893 4.45-12.37 7.263-13.432 2.01-1.365 2.915 1.633 2.71 8.997m-135.28.543c1.244-6.023 2.568-12.53 3.974-19.518 1.405-6.987 2.57-13.29 5.93-14.957 2.737-1.36 3.76 2.53 2.308 7.845-1.45 5.314-5.522 14.192-12.213 26.63m-18.832-.543c-.208 7.363-1.6 13.034-4.175 17.008-2.576 3.975-4.694 4.847-6.352 2.614-1.658-2.232-1.473-7.29.556-15.187 2.027-7.893 4.45-12.37 7.26-13.432 2.015-1.365 2.918 1.633 2.71 8.997m45.26-16.275c2.96 6.75.488 13.067-7.418 18.953 0-8.032 2.472-14.352 7.418-18.953m118.445 33.012c-3.642.53-5.285-2.65-4.93-9.54 0 0 .23-15.347 1.776-21.382.636-2.48-1.142-4.21-4.218-4.935-.683 1.98-1.097 4.365-1.244 7.154-2.546-5.66-5.965-5.557-10.258.316-3.307 4.52-6.734 12.392-7.304 22.71-3.258 8.322-5.743 9.813-6.18 6.77-.568-3.98 1.847-19.962 1.847-19.962 1.154-7.67 1.198-11.715.133-12.134-1.808-2.593-7.123 1.45-15.946 12.134 0 0 1.746-9.342 1.908-12.51.3-5.717-3.918-7.004-4.95-3.83-.494 1.52-.865 12.148-1.063 19.255-3.5 12.15-7.12 18.448-12.314 17.457-2.213-.423-2.497-4.34-2.823-8.052-.117-3.488.708-7.69 1.063-13.03l1.678-17.7c-2.043-.14-3.36.11-3.953.752 0 0-3.264 15.267-3.322 28.447-.943 3.35-2.024 6.188-3.252 8.497-1.508 2.85-3.366 1.74-4.388-1.136-2.72-7.66-.28-32.227-.18-32.76 3.972.024 7.826-.63 7.826-.63 1.237-1.596.657-4.136.657-4.136-2.038.29-7.42.29-7.42.29-.798.074-1.328-.755-1.328-.755.326-9.928-.205-14.568.09-13.973-.362-.732-4.11-1.653-4.582 1.89l-.445 5.44c-.266 4.967-.386 7.398-2.31 7.132-1.924-.265-4.392-.335-7.283-.94 0 0-1.165 3.424 2.345 4.002 1.323.217 3.81 1.065 5.558 1.143l-.042 9.205c-.208 5.298-.207 10.115 0 14.465-3.73 11.684-7.438 13.88-7.718 9.845-.28-4.015 1.698-18.368 1.698-18.368 1.156-7.67 1.2-11.715.133-12.134-1.807-2.593-7.122 1.45-15.944 12.134 0 0 1.744-9.342 1.908-12.51.3-5.717-3.92-7.004-4.95-3.83-.514 1.58-.895 12.968-1.086 20.048-2.807 8.048-3.155 10.4-9.807 15.497-3.224 2.47-4.974.527-5.33-8.872 8.172-8.48 12.06-14.47 11.66-17.972-.4-3.498-.926-5.932-1.577-7.3-.977-2.09-2.453-3.487-4.175-2.844-5.125 1.914-8.886 8.397-11.015 19.162l-.542 7.257c-2.768 8.694-5.038 13.34-6.81 13.915-2.057.668-3.708-2.007-4.95-8.032l.088-3.766c.888-3.543 2.627-7.343 5.218-11.4 2.59-4.06 4.96-9.08 7.107-15.065 2.146-5.982 2.982-10.695 2.508-14.14-.473-3.445-2.273-5.28-5.397-5.503-3.122-.224-5.646 1.686-7.482 5.773-1.713 3.814-2.365 5.648-3.375 9.58-1.31 5.097-2.46 10.503-2.932 16.36-.345 3.392-.496 6.742-.478 10.055-1.41 7.225-3.41 11.383-6.006 12.456-3.642.53-5.09-2.64-4.93-9.54.05-2.165-.044-8.66-.044-8.66l.355-6.07c.266-2.646.755-4.865 1.466-6.652.266-2.564-1.14-4.21-4.22-4.935-.682 1.98-1.095 4.365-1.243 7.154-2.547-5.66-5.967-5.557-10.26.316-4.294 5.87-9.89 17.36-5.996 32.612.257 1.01 1.91 3.598 1.91 3.598 4.56 4.603 9.075.265 13.546-13.01.89 5.438 2.8 10.202 6.662 10.962 3.396.665 6.477-3.252 9.14-8.786.483 6.626 1.5 11.025 3.563 12.382 2.55 1.68 5.093 1.185 6.93.21 2.45-.783 4.562-4.192 6.344-10.206 2.046 7.608 6.704 8.88 12.175 4.266 5.826-4.914 6.983-7.74 7.62-10.902-.316 5.057-.568 9.887-.747 14.456.71 1.2 1.864 1.117 3.462-.25.86-16.512 5.11-26.597 12.75-30.25-1.54 15.425-1.21 24.112-.8 26.59.513 3.12 2.22 4.47 3.818 4.247 4.49-.632 6.637-6.702 8.112-12.797.054.576.11 1.153.173 1.71 1.36 6.024 3.226 9.35 5.597 9.977 2.367.63 4.56-.14 6.573-2.3 1.022-1.1 1.894-2.275 2.62-3.527.155.98.345 1.92.58 2.794.592 2.233 2.602 4.115 5.728 4.143 0 0 6.84 1.05 10.022-7.637 0 0 1.395-3.108 2.414-6.157-.288 4.696-.52 9.19-.684 13.458.708 1.2 1.863 1.117 3.462-.25.858-16.512 5.107-26.597 12.747-30.25-1.54 15.425-1.208 24.112-.798 26.59.514 3.12 2.22 4.47 3.82 4.247 3.128-.44 5.116-3.526 6.533-7.414.207 1.338.483 2.707.84 4.108.258 1.01 1.29 2.82 1.91 3.598 4.093 5.133 9.074.265 13.548-13.01.885 5.438 2.797 10.202 6.66 10.962 3.458.676 6.59-3.39 9.284-9.08 2.427-4.24 2.412-8.188-.046-11.84-1.42 8.897-3.582 13.946-6.483 15.146zm-181.04-49.72c-.97-3.597-.98-7.28-.025-11.047.954-3.768 1.69-4.77 2.21-3.006.52 1.77-.21 6.452-2.185 14.053m15.965 8.128c1.6-.71.45-6.132.45-6.132s-10.493 4.936-12.95 2.402c1.408-6.74 2.422-11.13 2.757-13.923.333-2.79-.892-5.32-1.577-7.29-.686-1.97-2.595-1.617-5.724 1.063-3.133 2.68-3.61 9.807-1.432 21.38-5.324 29.394-12.38 51.338-15.092 48.168-2.712-3.168-5.303-15.607-3.32-45.29l2.46-29.14C8.87-.385 6.878-.922 4.87 2.418L3.615 14.436C2.777 22.1 1.84 31.75.802 43.385c0 0-.354 9.05-.25 12.062.642 18.784 4.27 29.053 7.783 31.056 3.514 2.002 5.242 1.442 6.78.83 2.56-1.02 6.058-8.168 10.243-26.588l6.424-26.16s4.482 2.215 13.49-1.794M204.203 18.388s-3.735-3.403-5.034 8.265c0 0 8.767-5.672 5.033-8.265m-5.034 8.265c4.22 5.836 6.82 2.756 6.82 2.756.81-3.728-6.82-2.757-6.82-2.757m-4.224-7.454s-2.273 1.943 4.223 7.453c0 0-.813-9.4-4.224-7.454M182.93 31.03c-5.847-4.214-2.598-8.753-2.598-8.753 3.736 5.998 12.666 7.132 12.666 7.132-3.735 5.186-10.068 1.62-10.068 1.62m-12.585-14.043c-.628 0-.95-.424-.95-.95 0-.523.427-.946.95-.946.527 0 .95.424.95.948 0 .525-.32.95-.95.95m10.8 1.238s-1.786-5.672-8.445-5.025c0 0-6.17.488-6.495 6.323 0 0 1.625-1.783 2.11.162 0 0-1.135 8.428 2.112 12.966 0 0 3.737 5.968 11.386 6.67-1.124 1.464-3.232 2.948-3.232 2.948l-4.746.942 3.54.148-2.62 1.718 3.59-1.398-.645 1.542 1.816-1.814 2.734-.274-1.848-.556c1.46-1.06 2.5-2.217 3.212-3.194 1.298-.025 2.693-.2 4.188-.573 0 0 10.067-3.404 11.367-12.157 0 0-11.042 4.538-18.025-8.427"/></g></svg>